<?xml version="1.0" standalone="no"?>
<!DOCTYPE svg PUBLIC "-//W3C//DTD SVG 1.1//EN" "http://www.w3.org/Graphics/SVG/1.1/DTD/svg11.dtd" >
<svg xmlns="http://www.w3.org/2000/svg" xmlns:xlink="http://www.w3.org/1999/xlink" version="1.1">
<metadata></metadata>
<defs>
<font id="romansqueregular" horiz-adv-x="1404" >
<font-face units-per-em="2048" ascent="1638" descent="-410" />
<missing-glyph horiz-adv-x="1538" />
<glyph horiz-adv-x="0" />
<glyph horiz-adv-x="682" />
<glyph unicode=" "  horiz-adv-x="1538" />
<glyph unicode="&#x09;" horiz-adv-x="1538" />
<glyph unicode="&#xa0;" horiz-adv-x="1538" />
<glyph unicode="!" horiz-adv-x="860" d="M281 111l149 149l150 -149l-150 -150zM371 457v1005h118v-1005h-118z" />
<glyph unicode="&#x22;" horiz-adv-x="1091" d="M281 1614l149 149l125 -127v-168l-76 -153l-102 -103l-86 86l92 91l41 79zM674 1614l149 149l125 -127v-168l-78 -153l-102 -103l-86 86l92 91l41 79z" />
<glyph unicode="#" horiz-adv-x="1531" d="M231 377v119h248l62 274h-244v119h268l185 848l116 -27l-182 -821h272l187 848l114 -27l-180 -821h223v-119h-247l-62 -274h244v-119h-268l-185 -848l-116 27l182 821h-275l-184 -848l-115 27l181 821h-224zM598 496h272l62 274h-273z" />
<glyph unicode="$" horiz-adv-x="1495" d="M215 229l86 86l152 -153l104 -35v639l-27 8l-145 70l-78 78l-76 155v168l158 160l168 57v260h121v-245h141v245h119v-260l166 -57l176 -172l-86 -86l-152 151l-104 37v-573l29 -10l143 -68l78 -80l78 -153v-234l-160 -160l-168 -57v-258h-119v244h-141v-244h-121v258 l-166 55zM350 1104l53 -107l56 -55l98 -51v444l-104 -37l-103 -102v-92zM678 104h141v572l-141 49v-621zM678 852l141 -49v555h-141v-506zM938 127l104 35l103 102v160l-53 106l-56 54l-98 51v-508z" />
<glyph unicode="%" horiz-adv-x="1863" d="M287 49l1038 1213l-102 -35h-217l-125 41v-125l-82 -162l-162 -82h-168l-166 168v168l80 162l162 80h160l135 -70l186 -61h178l182 61l140 70h141l-1286 -1502zM422 1114l96 -94h94l99 49l49 100v93l-94 96h-95l-98 -49l-51 -101v-94zM1022 152v167l80 162l162 80h168 l165 -166v-168l-79 -161l-162 -80h-168zM1141 201l96 -97h94l99 52l49 98v94l-95 94h-94l-98 -49l-51 -100v-92z" />
<glyph unicode="&#x26;" horiz-adv-x="1857" d="M215 293v158l78 153l78 78l264 152l-23 36l-69 209v156l82 164l174 86l174 -86l82 -164v-158l-78 -155l-76 -74l-90 -53l281 -400l45 68l131 323l67 144l92 90h115l100 -100v-136h-120v86l-29 29h-16l-41 -43l-62 -115l-131 -331l-80 -119l11 -15l116 -116l109 -56h94 l29 31v86h120v-135l-100 -100h-170l-153 75l-125 129l-127 -129l-156 -75h-287l-155 75l-76 76zM336 319l53 -106l55 -55l105 -54h237l107 54l121 123l4 4l-311 450l-263 -149l-55 -56l-53 -106v-105zM662 1098l59 -176l20 -29l84 47l56 57l53 107v106l-47 95l-88 45 l-86 -43l-51 -99v-110z" />
<glyph unicode="'" horiz-adv-x="841" d="M281 1614l149 149l125 -127v-168l-78 -153l-102 -103l-86 86l92 91l41 79z" />
<glyph unicode="(" horiz-adv-x="1097" d="M287 494v278l67 340l129 260l146 215l164 166l86 -86l-162 -158l-125 -188l-121 -250l-65 -319v-238l65 -321l121 -246l125 -191l162 -157l-86 -86l-164 165l-146 216l-129 260z" />
<glyph unicode=")" horiz-adv-x="1097" d="M219 -401l160 157l125 191l121 248l65 319v238l-65 321l-121 248l-125 188l-160 158l86 86l164 -166l143 -215l131 -260l68 -340v-278l-68 -340l-131 -260l-143 -216l-164 -165z" />
<glyph unicode="*" horiz-adv-x="1230" d="M223 860l273 164l-273 166l53 108l279 -168v332h119v-332l278 168l56 -108l-273 -166l273 -164l-56 -108l-278 168v-332h-119v332l-276 -166z" />
<glyph unicode="+" horiz-adv-x="1871" d="M303 573v119h571v574h121v-574h574v-119h-574v-573h-121v573h-571z" />
<glyph unicode="," horiz-adv-x="841" d="M281 111l149 149l125 -125v-168l-78 -155l-102 -103l-86 86l92 90l41 84z" />
<glyph unicode="-" horiz-adv-x="1871" d="M303 573v119h1266v-119h-1266z" />
<glyph unicode="." horiz-adv-x="860" d="M281 111l149 149l150 -149l-150 -150z" />
<glyph unicode="/" horiz-adv-x="1607" d="M145 -383l1219 2103l98 -71l-1218 -2102z" />
<glyph unicode="0" horiz-adv-x="1464" d="M215 623v215l66 338l151 229l223 72h154l221 -72l152 -229l67 -338v-215l-67 -338l-152 -228l-221 -71h-154l-223 71l-151 228zM334 645l63 -317l109 -166l170 -58h110l170 58l109 166l63 317v172l-63 316l-109 165l-170 60h-110l-170 -60l-109 -165l-63 -316v-172z" />
<glyph unicode="1" horiz-adv-x="956" d="M215 1190l164 82l207 205h84v-1477h-121v1274l-100 -103l-179 -88z" />
<glyph unicode="2" horiz-adv-x="1390" d="M143 -14l754 751l125 187l55 114v105l-53 106l-55 54l-107 55h-233l-107 -55l-55 -54l-53 -106v-99h-121v125l78 154l75 78l156 76h287l155 -76l76 -78l78 -154v-157l-76 -150l-135 -203l-555 -555h815v-118h-1104z" />
<glyph unicode="3" horiz-adv-x="1478" d="M215 319l109 54l82 -166l45 -45l174 -58h178l172 58l108 108l60 176v113l-58 172l-49 47l-108 56h-301l391 524h-643v119h882l-393 -523h90l156 -77l80 -82l74 -215v-154l-74 -217l-154 -154l-215 -69h-217l-217 71l-84 82z" />
<glyph unicode="4" horiz-adv-x="1501" d="M199 442l739 1035h92v-916h311v-119h-311v-442h-119v442h-712zM432 561h479v668z" />
<glyph unicode="5" horiz-adv-x="1476" d="M215 317l107 56l81 -166l46 -45l174 -58h178l172 58l108 108l60 176v113l-60 172l-106 109l-176 59h-178l-175 -59l-172 -174l88 811h752v-119h-643l-45 -397l176 59h217l217 -74l152 -151l74 -215v-154l-74 -217l-154 -154l-215 -69h-217l-217 71l-84 82z" />
<glyph unicode="6" horiz-adv-x="1398" d="M215 496v342l66 333l77 152l82 82l215 72h154l227 -74l97 -195l-107 -55l-74 145l-166 60h-110l-172 -60l-47 -47l-56 -110l-65 -324v-41l104 105l215 73h88l218 -73l151 -152l72 -215v-88l-72 -217l-154 -154l-215 -69h-88l-215 71l-151 152zM338 498l57 -228l107 -106 l174 -60h49l172 58l109 108l59 176v50l-59 170l-107 108l-176 60h-47l-174 -60l-107 -106z" />
<glyph unicode="7" horiz-adv-x="1341" d="M143 1358v119h1055l-715 -1495l-108 49l633 1327h-865z" />
<glyph unicode="8" horiz-adv-x="1464" d="M215 293v223l76 154l147 145l72 23l-150 77l-79 162v158l81 168l228 74h282l230 -74l82 -168v-158l-80 -162l-150 -77l70 -23l147 -145l78 -154v-227l-153 -232l-224 -71h-282l-217 71l-82 80zM334 317l53 -106l49 -49l174 -58h242l168 58l108 162v165l-53 107l-112 113 l-181 61l-51 12l-49 -12l-182 -61l-113 -113l-53 -107v-172zM399 1102l52 -98l106 -54l174 -45l176 45l107 54l49 100v102l-45 92l-166 60h-242l-164 -60l-47 -90v-106z" />
<glyph unicode="9" horiz-adv-x="1398" d="M215 948v88l72 215l153 154l215 72h88l218 -72l151 -152l72 -288v-342l-64 -334l-78 -152l-84 -82l-215 -69h-151l-227 73l-97 195l107 53l71 -145l166 -58h113l172 58l47 49l55 111l66 323v41l-107 -106l-215 -72h-88l-215 74l-151 149zM336 967l57 -174l109 -107 l174 -59h49l172 59l109 107l57 170l-57 229l-107 106l-176 60h-47l-174 -60l-107 -106l-59 -176v-49z" />
<glyph unicode=":" horiz-adv-x="860" d="M281 111l149 149l150 -149l-150 -150zM281 895l149 149l150 -149l-150 -150z" />
<glyph unicode=";" horiz-adv-x="860" d="M281 111l149 149l125 -125v-168l-76 -155l-104 -103l-84 86l90 90l41 84zM281 895l149 149l150 -149l-150 -150z" />
<glyph unicode="&#x3c;" horiz-adv-x="1800" d="M270 633l1178 663l57 -106l-991 -557l991 -559l-57 -105z" />
<glyph unicode="=" horiz-adv-x="1871" d="M303 377v119h1266v-119h-1266zM303 770v119h1266v-119h-1266z" />
<glyph unicode="&#x3e;" horiz-adv-x="1798" d="M295 76l989 557l-989 557l55 106l1178 -663l-1176 -664z" />
<glyph unicode="?" horiz-adv-x="1339" d="M287 1067v102l75 154l78 78l154 76h221l227 -74l82 -168v-158l-75 -155l-80 -78l-129 -66l-107 -104v-217h-121v266l156 156l131 65l51 53l56 107v102l-48 92l-165 60h-172l-107 -55l-53 -54l-21 -39l121 -120l-149 -150zM524 111l148 149l149 -149l-149 -150z" />
<glyph unicode="@" horiz-adv-x="1921" d="M215 623v217l70 204l69 148l148 145l147 70l203 70h219l203 -70l147 -70l146 -145l71 -148l68 -204v-154l-72 -215l-159 -160h-31l82 -82l-105 -104l-147 -72l-203 -67h-219l-203 67l-147 72l-148 145l-69 148zM334 641l61 -186l60 -111l118 -121l113 -57l186 -62h179 l184 62l113 57l88 88h-140l-75 74l-150 -74h-221l-156 78l-76 76l-75 156v221l75 155l76 76l156 78h221l125 -64v48h119v-674l31 -29h81l101 100l59 175v114l-61 183l-58 114l-120 119l-111 59l-186 62h-181l-184 -62l-113 -59l-118 -119l-60 -112l-61 -187v-178zM662 645 l53 -106l55 -54l107 -53h170l98 47l51 103v299l-49 100l-100 49h-170l-107 -53l-55 -55l-53 -107v-170z" />
<glyph unicode="A" horiz-adv-x="1366" d="M74 29l569 1493h84l565 -1493l-108 -52l-183 480h-634l-183 -480zM414 580h540l-270 706z" />
<glyph unicode="B" horiz-adv-x="1536" d="M287 -16v1538h678l223 -76l86 -82l78 -160v-162l-78 -159l-88 -84l-39 -13l41 -12l86 -84l78 -160v-229l-78 -158l-88 -86l-221 -73h-678zM410 109h536l176 59l49 49l58 113v176l-58 110l-49 48l-178 61h-534v-616zM410 848h536l176 59l49 51l58 111v111l-58 108l-49 51 l-178 60h-534v-551z" />
<glyph unicode="C" horiz-adv-x="1544" d="M215 573v361l70 209l73 151l148 148l160 80h297l159 -80l148 -148l90 -184l-109 -55l-84 166l-123 122l-108 56h-244l-108 -56l-123 -122l-60 -117l-63 -193v-319l63 -191l60 -114l123 -123l108 -55h244l108 55l123 121l84 172l109 -62l-90 -184l-148 -148l-159 -79h-297 l-160 79l-148 148l-73 154z" />
<glyph unicode="D" horiz-adv-x="1566" d="M287 -16v1538h544l224 -76l153 -152l74 -151l70 -209v-361l-70 -208l-74 -154l-155 -154l-222 -73h-544zM410 109h401l178 59l117 119l59 114l64 193v319l-64 189l-59 119l-115 116l-182 62h-399v-1290z" />
<glyph unicode="E" horiz-adv-x="1429" d="M287 -16v1538h983v-123h-860v-551h524v-123h-524v-616h860v-125h-983z" />
<glyph unicode="F" horiz-adv-x="1357" d="M287 0v1522h983v-123h-860v-551h524v-123h-524v-725h-123z" />
<glyph unicode="G" horiz-adv-x="1574" d="M215 573v361l70 209l73 151l148 148l160 80h297l159 -80l148 -148l90 -184l-109 -55l-84 166l-123 122l-108 56h-244l-108 -56l-123 -122l-60 -117l-63 -193v-319l63 -191l60 -114l123 -123l108 -55h244l108 55l123 123l58 108v127h-322v125h445v-278l-80 -160l-146 -146 l-159 -79h-297l-160 79l-148 148l-73 154z" />
<glyph unicode="H" horiz-adv-x="1708" d="M287 0v1505h125v-657h886v657h123v-1505h-123v725h-886v-725h-125z" />
<glyph unicode="I" horiz-adv-x="698" d="M287 0v1505h125v-1505h-125z" />
<glyph unicode="J" horiz-adv-x="1226" d="M143 371v192h123v-172l60 -178l51 -47l110 -57h111l109 55l51 49l59 180v1112h123v-1134l-76 -224l-82 -84l-159 -79h-162l-160 79l-82 84z" />
<glyph unicode="K" horiz-adv-x="1441" d="M287 0v1505h123v-837l870 870l88 -90l-602 -602l600 -799l-96 -74l-590 789l-270 -270v-492h-123z" />
<glyph unicode="L" horiz-adv-x="1222" d="M287 -16v1521h123v-1396h725v-125h-848z" />
<glyph unicode="M" horiz-adv-x="1773" d="M287 0v1505h108l492 -1286l491 1286h109v-1505h-123v1126l-430 -1126h-94l-430 1128v-1128h-123z" />
<glyph unicode="N" horiz-adv-x="1638" d="M287 0v1505h104l838 -1257v1257h123v-1505h-103l-839 1255v-1255h-123z" />
<glyph unicode="O" horiz-adv-x="1630" d="M215 573v361l72 209l71 151l150 148l160 80h295l159 -80l150 -148l71 -151l72 -209v-361l-72 -208l-71 -154l-150 -148l-159 -79h-295l-160 79l-150 148l-71 154zM338 592l63 -191l60 -114l123 -123l110 -55h242l111 55l122 123l60 114l63 193v319l-63 189l-60 119 l-122 122l-111 56h-242l-110 -56l-123 -122l-60 -117l-63 -193v-319zM1229 1102v2l4 -8z" />
<glyph unicode="P" horiz-adv-x="1566" d="M287 0v1522h678l223 -76l86 -82l78 -160v-229l-78 -160l-88 -84l-221 -74h-555v-657h-123zM410 780h536l176 60l49 51l58 110v179l-58 108l-49 51l-178 60h-534v-619z" />
<glyph unicode="Q" horiz-adv-x="1630" d="M215 573v361l72 209l71 151l150 148l160 80h295l159 -80l150 -148l71 -151l72 -209v-361l-72 -208l-71 -154l-101 -100l193 -189l-88 -88l-205 205l-108 -55h-295l-160 79l-150 148l-71 154zM338 592l63 -191l60 -114l123 -123l110 -55h242l43 20l-174 174l90 90 l190 -192l84 86l60 114l63 193v319l-63 189l-60 119l-122 122l-111 56h-242l-110 -56l-123 -122l-60 -117l-63 -193v-319z" />
<glyph unicode="R" horiz-adv-x="1585" d="M287 0v1522h680l223 -76l84 -82l78 -160v-162l-78 -159l-86 -84l-221 -74h-33l436 -688l-110 -57l-474 745h-376v-725h-123zM410 848h536l178 59l47 51l58 111v111l-58 108l-47 51l-180 60h-534v-551z" />
<glyph unicode="S" horiz-adv-x="1527" d="M215 238l90 88l156 -158l178 -59h252l176 59l107 104v164l-56 111l-55 55l-117 60l-409 137l-146 71l-82 80l-78 160v174l164 162l223 76h291l221 -74l183 -178l-88 -88l-158 155l-178 62h-252l-178 -62l-105 -104v-96l56 -109l55 -57l117 -60l409 -135l146 -71l82 -82 l77 -160v-240l-166 -166l-221 -73h-291l-221 73z" />
<glyph unicode="T" horiz-adv-x="1210" d="M88 1399v123h1034v-123h-456v-1399h-123v1399h-455z" />
<glyph unicode="U" horiz-adv-x="1638" d="M287 438v1067h123v-1046l59 -180l113 -109l180 -61h117l178 59l110 111l62 180v1046h123v-1067l-74 -223l-158 -158l-221 -73h-158l-223 75l-156 156z" />
<glyph unicode="V" horiz-adv-x="1366" d="M74 1477l110 53l500 -1315l500 1313l108 -51l-559 -1477h-94z" />
<glyph unicode="W" horiz-adv-x="1777" d="M143 1493l121 25l289 -1203l285 1190h104l283 -1192l288 1207l121 -27l-356 -1493h-104l-285 1190l-285 -1190h-104z" />
<glyph unicode="X" horiz-adv-x="1538" d="M217 37l477 717l-477 716l109 58l442 -664l442 664l111 -58l-479 -718l477 -713l-109 -59l-442 663l-442 -663z" />
<glyph unicode="Y" horiz-adv-x="1382" d="M76 1458l98 76l516 -647l518 647l99 -76l-555 -694v-764h-123v764z" />
<glyph unicode="Z" horiz-adv-x="1574" d="M201 -16l944 1415h-877v123h1106l-946 -1413h877v-125h-1104z" />
<glyph unicode="[" horiz-adv-x="935" d="M215 -473v2212h561v-121h-442v-1970h442v-121h-561z" />
<glyph unicode="\" horiz-adv-x="1609" d="M145 1649l99 71l1220 -2107l-100 -68z" />
<glyph unicode="]" horiz-adv-x="937" d="M160 -352h442v1970h-442v121h563v-2212h-563v121z" />
<glyph unicode="^" horiz-adv-x="1624" d="M223 1382l590 365l588 -365l-55 -106l-533 334l-532 -332z" />
<glyph unicode="_" horiz-adv-x="1781" d="M160 -27h1462v-118h-1462v118z" />
<glyph unicode="`" horiz-adv-x="1286" d="M287 1382l51 107l668 -295l-50 -109z" />
<glyph unicode="a" d="M215 426v154l72 213l147 149l154 78h223l156 -78l32 -33v95h119v-1004h-119v94l-32 -33l-156 -75h-223l-154 75l-145 148zM334 444l59 -174l115 -112l106 -54h170l107 54l108 106v475l-108 107l-107 53h-170l-106 -53l-113 -113l-61 -174v-115z" />
<glyph unicode="b" d="M287 0v1462h119v-553l32 33l156 78h221l156 -78l145 -147l74 -215v-154l-74 -217l-145 -148l-156 -75h-221l-156 75l-32 33v-94h-119zM406 264l108 -106l107 -54h170l106 54l113 112l59 176v113l-59 172l-113 115l-106 53h-170l-107 -53l-108 -107v-475z" />
<glyph unicode="c" horiz-adv-x="1277" d="M215 426v154l72 213l147 149l156 78h221l156 -78l168 -168l-86 -86l-158 158l-107 53h-170l-106 -53l-113 -113l-59 -174v-115l57 -174l115 -112l106 -54h170l107 54l158 157l86 -86l-168 -168l-156 -75h-221l-156 75l-145 148z" />
<glyph unicode="d" d="M215 426v154l72 213l147 149l154 78h223l156 -78l32 -33v553h119v-1462h-119v94l-32 -33l-156 -75h-223l-154 75l-145 148zM334 444l59 -174l115 -112l106 -54h170l107 54l108 106v475l-108 107l-107 53h-170l-106 -53l-113 -113l-61 -174v-115z" />
<glyph unicode="e" horiz-adv-x="1349" d="M215 426v154l72 213l147 149l156 78h221l156 -78l75 -76l78 -155v-203h-784v-64l57 -174l115 -112l106 -54h170l107 54l158 157l86 -86l-168 -168l-156 -75h-221l-156 75l-145 148zM358 627h641v59l-53 107l-55 53l-107 53h-170l-106 -53l-113 -113z" />
<glyph unicode="f" horiz-adv-x="931" d="M160 899v121h180v147l76 228l166 82h190v-119h-162l-92 -47l-57 -166v-125h246v-121h-246v-899h-121v899h-180z" />
<glyph unicode="g" d="M215 426v154l72 213l147 149l154 78h223l156 -78l32 -33v95h119v-1100l-71 -217l-80 -82l-156 -78h-223l-187 94l60 105l153 -78h172l107 53l49 49l57 174v170l-32 -33l-156 -75h-223l-154 75l-145 148zM334 444l59 -174l115 -112l106 -54h170l107 54l108 106v475 l-108 107l-107 53h-170l-106 -53l-113 -113l-61 -174v-115z" />
<glyph unicode="h" horiz-adv-x="1411" d="M287 0v1462h119v-620l98 100l155 78h224l168 -82l73 -229v-709h-118v686l-60 168l-90 45h-170l-111 -55l-169 -172v-672h-119z" />
<glyph unicode="i" horiz-adv-x="714" d="M209 1352l147 149l150 -149l-150 -150zM297 0v1004h121v-1004h-121z" />
<glyph unicode="j" horiz-adv-x="819" d="M92 -352h158l92 45l59 166v1145h119v-1166l-76 -229l-165 -82h-187v121zM311 1352l150 149l149 -149l-149 -150z" />
<glyph unicode="k" horiz-adv-x="1290" d="M287 0v1462h119v-1011l583 583l86 -86l-385 -383l453 -516l-96 -74l-443 504l-198 -198v-281h-119z" />
<glyph unicode="l" horiz-adv-x="694" d="M287 0v1462h121v-1462h-121z" />
<glyph unicode="m" horiz-adv-x="2131" d="M287 0v1004h121v-162l98 100l156 78h223l166 -82l41 -127l133 131l155 78h224l165 -82l76 -229v-709h-121v686l-57 168l-92 45h-170l-109 -55l-170 -172v-672h-120v686l-58 168l-92 45h-170l-108 -55l-170 -172v-672h-121z" />
<glyph unicode="n" horiz-adv-x="1411" d="M287 0v1004h119v-162l98 100l155 78h224l168 -82l73 -229v-709h-118v686l-60 168l-90 45h-170l-111 -55l-169 -172v-672h-119z" />
<glyph unicode="o" horiz-adv-x="1398" d="M215 426v154l72 213l147 149l154 78h223l154 -78l145 -147l74 -215v-154l-74 -217l-145 -148l-154 -75h-223l-154 75l-147 148zM334 444l57 -174l117 -112l106 -54h170l107 54l113 112l61 176v113l-61 172l-113 115l-107 53h-170l-106 -53l-115 -113l-59 -174v-115z" />
<glyph unicode="p" d="M287 -457v1461h119v-95l32 33l156 78h221l156 -78l145 -147l74 -215v-154l-74 -217l-145 -148l-156 -75h-221l-156 75l-32 33v-551h-119zM406 264l108 -106l107 -54h170l106 54l113 112l59 176v113l-59 172l-113 115l-106 53h-170l-107 -53l-108 -107v-475z" />
<glyph unicode="q" d="M215 426v154l72 213l147 149l154 78h223l156 -78l32 -33v95h119v-1461h-119v551l-32 -33l-156 -75h-223l-154 75l-145 148zM334 444l59 -174l115 -112l106 -54h170l107 54l108 106v475l-108 107l-107 53h-170l-106 -53l-113 -113l-61 -174v-115z" />
<glyph unicode="r" horiz-adv-x="1003" d="M287 0v1004h121v-162l98 100l156 78h253v-121h-229l-106 -53l-113 -113l-59 -174v-559h-121z" />
<glyph unicode="s" horiz-adv-x="1290" d="M213 252l104 55l72 -145l166 -58h174l168 58l45 92v41l-49 96l-102 51l-328 66l-160 82l-86 174l88 180l230 76h217l227 -76l96 -194l-106 -54l-72 146l-168 57h-174l-164 -55l-41 -82l45 -86l101 -49l327 -66l158 -80l82 -162v-94l-82 -166l-229 -73h-217l-228 73z" />
<glyph unicode="t" horiz-adv-x="931" d="M160 899v121h180v442h121v-442h246v-121h-246v-584l57 -163l92 -48h162v-118h-190l-166 82l-76 227v604h-180z" />
<glyph unicode="u" horiz-adv-x="1411" d="M287 295v709h119v-689l57 -163l92 -48h170l111 56l170 172v672h118v-1004h-118v162l-101 -101l-153 -75h-226l-166 82z" />
<glyph unicode="v" horiz-adv-x="1216" d="M145 975l107 49l356 -827l355 827l108 -49l-416 -975h-94z" />
<glyph unicode="w" horiz-adv-x="1617" d="M215 991l117 25l215 -756l213 744h96l213 -742l215 756l119 -27l-283 -991h-98l-213 745l-213 -745h-98z" />
<glyph unicode="x" horiz-adv-x="1306" d="M219 47l359 455l-359 456l96 72l338 -430l338 430l96 -72l-358 -456l356 -453l-94 -76l-338 433l-338 -433z" />
<glyph unicode="y" horiz-adv-x="1198" d="M88 -352h96l107 53l115 117l118 229l-397 928l106 49l357 -827l356 827l107 -49l-410 -955l-133 -270l-145 -145l-154 -78h-123v121z" />
<glyph unicode="z" horiz-adv-x="1380" d="M199 -14l721 913h-641v121h886l-721 -916h641v-118h-886z" />
<glyph unicode="{" horiz-adv-x="1159" d="M266 633l221 115l109 106v92l-53 107l-66 65l-78 156v156l78 155l78 78l180 88l53 -106l-161 -82l-54 -54l-53 -104v-107l53 -104l66 -66l76 -155v-168l-154 -158l-31 -14l31 -15l154 -157v-168l-76 -156l-66 -63l-53 -107v-104l53 -107l54 -53l166 -82l-58 -106l-180 88 l-78 78l-78 155v156l78 155l66 66l53 106v93l-111 106z" />
<glyph unicode="|" horiz-adv-x="694" d="M287 -457v2179h121v-2179h-121z" />
<glyph unicode="}" horiz-adv-x="1155" d="M295 -379l164 82l51 53l55 107v104l-55 107l-66 63l-75 156v168l153 157l31 15l-31 14l-153 158v168l75 155l66 66l55 104v107l-55 104l-51 54l-164 82l55 106l178 -88l78 -78l78 -155v-156l-78 -156l-63 -65l-56 -107v-92l109 -109l221 -112l-221 -115l-109 -106v-93 l56 -106l63 -66l78 -155v-156l-78 -155l-78 -78l-176 -86z" />
<glyph unicode="~" horiz-adv-x="1796" d="M215 391v189l74 227l166 82h159l154 -76l260 -197l109 -55h104l98 49l52 101v163h118v-188l-79 -164l-162 -80h-158l-152 76l-262 197l-108 55h-103l-94 -47l-57 -166v-166h-119z" />
<glyph horiz-adv-x="2080" />
<glyph unicode="&#xa1;" horiz-adv-x="1075" d="M281 1313l149 149l150 -149l-150 -150zM371 -39v1006h118v-1006h-118z" />
<glyph unicode="&#xa2;" horiz-adv-x="1370" d="M215 -162l174 287l-84 84l-74 217v154l72 213l148 149l153 78h221l74 -37l145 238l109 -54l-147 -247l145 -146l-86 -86l-125 125l-399 -663l90 -46h170l106 54l158 157l86 -86l-168 -168l-156 -75h-223l-125 61l-155 -264zM350 444l62 -174l39 -39l389 650l-39 18h-170 l-107 -53l-112 -113l-62 -174v-115z" />
<glyph unicode="&#xa3;" horiz-adv-x="1384" d="M193 -14l280 278v412h-180v119h180v440l82 164l174 86l174 -86l94 -191l-104 -55l-76 152l-88 45l-86 -43l-49 -99v-413h180v-119h-180v-459l-113 -113h815v-118h-1103z" />
<glyph unicode="&#xa5;" horiz-adv-x="1632" d="M76 1415l96 74l502 -629l502 629l94 -74l-471 -592h377v-118h-443v-78h443v-119h-443v-508h-119v508h-442v119h442v78h-442v118h377z" />
<glyph unicode="&#xa7;" horiz-adv-x="1464" d="M215 750v92l76 155l76 76l110 55l-55 56l-78 155v91l78 155l76 76l155 78h156l156 -78l77 -76l76 -155v-103l-125 -125l-149 150l119 118l-19 39l-53 56l-107 53h-104l-107 -53l-55 -56l-53 -104v-41l53 -107l51 -49l523 -262l79 -80l78 -155v-90l-78 -156l-75 -76 l-111 -55l57 -55l76 -156v-92l-76 -154l-77 -78l-156 -75h-156l-155 75l-76 78l-78 154v104l127 125l147 -149l-118 -121l18 -39l55 -53l107 -56h104l107 56l53 53l55 106v39l-55 107l-51 51l-522 262l-80 80zM334 776l53 -106l51 -49l375 -189h102l105 53l55 54l53 106v41 l-53 107l-55 53l-371 184h-100l-107 -53l-55 -55l-53 -107v-39z" />
<glyph unicode="&#xa8;" horiz-adv-x="1705" d="M221 1352l150 149l149 -149l-149 -150zM811 1352l150 149l147 -149l-147 -150z" />
<glyph unicode="&#xaa;" horiz-adv-x="1019" d="M287 1176v90l39 116l49 50l90 45h90l59 -31v16h119v-481h-119v12l-59 -28h-90l-90 45l-47 49zM315 766v121h418v-121h-418zM406 1196l26 -76l17 -14l40 -21h41l41 21l23 22l20 41v105l-20 41l-23 22l-41 21h-41l-40 -21l-17 -16l-26 -76v-49z" />
<glyph unicode="&#xab;" horiz-adv-x="1370" d="M209 502l530 532l86 -86l-448 -446l448 -447l-86 -86zM537 502l530 532l84 -86l-446 -446l446 -447l-84 -86z" />
<glyph unicode="&#xad;" horiz-adv-x="1871" d="M303 573v119h1266v-119h-1266z" />
<glyph unicode="&#xb0;" horiz-adv-x="739" d="M72 1251v70l22 68l64 63l69 25h70l70 -25l61 -61l25 -70v-70l-25 -69l-61 -62l-70 -24h-70l-69 24l-62 62zM190 1268l11 -23l20 -20l25 -11h35l22 11l21 20l10 25v33l-12 28l-19 17l-24 10h-35l-25 -12l-18 -19l-11 -24v-35z" />
<glyph unicode="&#xb1;" horiz-adv-x="1871" d="M303 51v119h1266v-119h-1266zM303 770v119h571v573h121v-573h574v-119h-574v-573h-121v573h-571z" />
<glyph unicode="&#xb4;" horiz-adv-x="886" d="M82 1192l672 297l51 -107l-672 -299z" />
<glyph unicode="&#xb5;" horiz-adv-x="1472" d="M4 -401l150 149l198 1256h115v-689l57 -163l90 -48h170l111 56l170 172v672h121v-1004h-121v162l-98 -101l-156 -75h-223l-166 82l-66 196l-90 -573l-176 -178z" />
<glyph unicode="&#xba;" horiz-adv-x="1019" d="M287 1176v90l39 116l49 50l90 45h90l90 -45l47 -50l41 -116v-90l-41 -117l-47 -49l-90 -45h-90l-90 45l-47 49zM301 770v121h418v-121h-418zM406 1196l26 -76l17 -14l40 -21h41l41 21l17 14l26 76v51l-24 72l-19 18l-41 21h-41l-40 -21l-17 -16l-26 -76v-49z" />
<glyph unicode="&#xbb;" horiz-adv-x="1370" d="M219 55l449 447l-449 446l86 86l531 -532l-531 -533zM545 55l448 447l-448 446l86 86l530 -532l-530 -533z" />
<glyph unicode="&#xbc;" horiz-adv-x="2017" d="M295 1450l162 82l225 225v-1104h-119v815l-35 -36l-178 -86zM403 -227l1088 1972l106 -55l-1089 -1975zM893 117l639 823v-704h182v-119h-182v-314h-119v314h-520zM1137 236h276v352z" />
<glyph unicode="&#xbd;" horiz-adv-x="2015" d="M295 1450l162 82l227 225v-1104h-121v815l-35 -36l-178 -86zM342 -227l1090 1972l106 -55l-1092 -1975zM1014 -211l538 617l58 110v39l-49 98l-101 52h-104l-101 -50l-49 -100v-98h-119v125l80 161l162 80h158l162 -80l80 -161v-93l-76 -153l-375 -428h436v-119h-700z " />
<glyph unicode="&#xbe;" horiz-adv-x="2080" />
<glyph unicode="&#xbf;" horiz-adv-x="1341" d="M215 225v160l78 154l78 79l131 66l106 104v216h119v-265l-156 -157l-129 -64l-53 -53l-53 -107v-102l45 -94l166 -58h172l106 54l56 55l18 37l-119 121l150 149l125 -125v-102l-78 -156l-76 -76l-156 -75h-219l-229 73zM518 1352l150 149l149 -149l-149 -150z" />
<glyph unicode="&#xc0;" horiz-adv-x="1366" d="M74 29l569 1493h84l565 -1493l-108 -52l-183 480h-634l-183 -480zM346 1745l55 108l355 -176l-58 -108zM414 580h540l-270 706z" />
<glyph unicode="&#xc1;" horiz-adv-x="1366" d="M74 29l569 1493h84l565 -1493l-108 -52l-183 480h-634l-183 -480zM414 580h540l-270 706zM614 1677l353 174l55 -108l-348 -174z" />
<glyph unicode="&#xc2;" horiz-adv-x="1366" d="M74 29l569 1493h84l565 -1493l-108 -52l-183 480h-634l-183 -480zM346 1677l338 166l338 -166l-57 -110l-281 141l-281 -141zM414 580h540l-270 706z" />
<glyph unicode="&#xc3;" horiz-adv-x="1366" d="M74 29l569 1493h84l565 -1493l-108 -52l-183 480h-634l-183 -480zM307 1602l94 176l95 67h106l94 -71l60 -60l43 -22h32l39 30l80 158l115 -49l-98 -195l-95 -67h-100l-92 47l-70 70l-49 34h-22l-41 -28l-86 -152zM414 580h540l-270 706z" />
<glyph unicode="&#xc4;" horiz-adv-x="1366" d="M74 29l569 1493h84l565 -1493l-108 -52l-183 480h-634l-183 -480zM268 1724l154 154l156 -154l-156 -155zM414 580h540l-270 706zM801 1724l153 154l154 -154l-154 -155z" />
<glyph unicode="&#xc5;" horiz-adv-x="1366" d="M74 29l530 1388l-20 6l-64 62l-24 76v69l24 74l64 61l71 27h76l70 -27l63 -61l25 -74v-69l-25 -76l-63 -62l-33 -12l524 -1382l-108 -52l-183 480h-634l-183 -480zM414 580h540l-270 706zM618 1575l11 -25l22 -20l23 -8h37l24 10l23 20l8 25v37l-10 22l-21 23l-26 8h-35 l-25 -8l-20 -23l-11 -24v-37z" />
<glyph unicode="&#xc6;" horiz-adv-x="1427" d="M74 29l561 1493h633v-123h-525v-551h322v-123h-322v-616h525v-125h-647v473h-256l-183 -480zM412 580h209v544z" />
<glyph unicode="&#xc7;" horiz-adv-x="1863" d="M215 573v361l70 209l73 151l148 148l160 80h297l159 -80l148 -148l90 -184l-109 -55l-84 166l-123 122l-108 56h-244q-85 -46 -108 -56l-123 -122l-60 -117l-63 -193v-319l63 -191l60 -114l123 -123l108 -55h244q8 3 108 55l123 121q11 26 43.5 88.5t40.5 79.5l109 -58 l-90 -184l-148 -148l-159 -79h-86v-78h98l102 -105v-184l-102 -104h-252l-121 118l90 90l82 -86h150l30 31v86l-30 31h-170v201h-88l-160 79l-148 148l-73 154z" />
<glyph unicode="&#xc8;" horiz-adv-x="1429" d="M287 -16v1402h983v-122h-860v-484h524v-123h-524v-548h860v-125h-983zM414 1812l55 109l686 -303l-51 -113z" />
<glyph unicode="&#xc9;" horiz-adv-x="1429" d="M287 -16v1402h983v-122h-860v-484h524v-123h-524v-548h860v-125h-983zM414 1616l690 305l55 -109l-692 -309z" />
<glyph unicode="&#xca;" horiz-adv-x="1429" d="M287 -16v1538h983v-123h-860v-551h524v-123h-524v-616h860v-125h-983zM414 1679l321 160h103l321 -160l-57 -112l-293 147h-41l-297 -145z" />
<glyph unicode="&#xcb;" horiz-adv-x="1429" d="M287 -16v1538h983v-123h-860v-551h524v-123h-524v-616h860v-125h-983zM330 1724l153 154l154 -154l-154 -155zM936 1724l154 154l153 -154l-153 -155z" />
<glyph unicode="&#xcc;" horiz-adv-x="722" d="M147 1769l89 89l200 -201l-88 -88zM297 0v1505h125v-1505h-125z" />
<glyph unicode="&#xcd;" horiz-adv-x="722" d="M287 1655l200 200l88 -88l-200 -200zM303 0v1505h123v-1505h-123z" />
<glyph unicode="&#xce;" horiz-adv-x="718" d="M147 1657l213 211l211 -211l-88 -88l-123 125l-124 -125zM297 0v1505h125v-1505h-125z" />
<glyph unicode="&#xcf;" horiz-adv-x="737" d="M66 1700l127 127l126 -127l-126 -129zM297 0v1505h125v-1505h-125zM418 1700l127 127l127 -127l-127 -129z" />
<glyph unicode="&#xd0;" horiz-adv-x="1556" d="M88 725v123h186v674h545l223 -76l154 -152l74 -151l71 -209v-361l-71 -208l-74 -154l-156 -154l-221 -73h-545v741h-186zM399 109h402l176 59l119 119l59 114l64 193v319l-64 189l-59 119l-117 116l-180 62h-400v-551h387v-123h-387v-616z" />
<glyph unicode="&#xd1;" horiz-adv-x="1638" d="M287 0v1372h104l838 -1141v1141h123v-1372h-103l-839 1141v-1141h-123zM338 1540l254 254h115l270 -203h18l217 217l88 -88l-253 -252h-115l-270 201h-19l-217 -217z" />
<glyph unicode="&#xd2;" horiz-adv-x="1558" d="M143 500v372l144 285l149 152l160 77h295l160 -77l151 -152l141 -285v-368l-141 -291l-151 -150l-160 -79h-295l-160 79l-149 150zM266 532q25 -48 69.5 -138.5t51.5 -104.5l125 -125l111 -55h241q22 10 59.5 29t51.5 26l125 125q21 41 60.5 121.5t60.5 121.5v308 q-23 44 -62.5 125t-58.5 118l-125 125l-111 56h-241q-18 -8 -53.5 -27t-57.5 -29l-125 -125q-86 -177 -121 -243v-308zM406 1769l57 111l622 -311l-61 -113z" />
<glyph unicode="&#xd3;" horiz-adv-x="1558" d="M143 500v372l144 285l149 152l160 77h295l160 -77l151 -152l141 -285v-368l-141 -291l-151 -150l-160 -79h-295l-160 79l-149 150zM266 532q25 -48 69.5 -138.5t51.5 -104.5l125 -125l111 -55h241q22 10 59.5 29t51.5 26l125 125q21 41 60.5 121.5t60.5 121.5v308 q-23 44 -62.5 125t-58.5 118l-125 125l-111 56h-241q-18 -8 -53.5 -27t-57.5 -29l-125 -125q-86 -177 -121 -243v-308zM406 1567l618 311l57 -111l-616 -311z" />
<glyph unicode="&#xd4;" horiz-adv-x="1558" d="M143 573v361l72 209l74 151l147 148l160 80h295l160 -80l149 -148l72 -151l71 -209v-361l-71 -208l-72 -154l-149 -148l-160 -79h-295l-160 79l-147 148l-74 154zM266 592l64 -191l59 -114l123 -123l111 -55h241q22 10 59.5 29t51.5 26l123 123l59 114l64 193v319 l-64 189l-59 119l-123 122l-111 56h-241q-98 -51 -111 -56l-123 -122l-59 -117l-64 -193v-319zM326 410l4 -9zM406 1679l337 166l338 -166l-57 -110l-281 141q-27 -14 -130.5 -66.5t-149.5 -74.5zM1157 1102v2l4 -8z" />
<glyph unicode="&#xd5;" horiz-adv-x="1630" d="M215 573v361l72 209l71 151l150 148l160 80h295l159 -80l150 -148l71 -151l72 -209v-361l-72 -208l-71 -154l-150 -148l-159 -79h-295l-160 79l-150 148l-71 154zM338 592l63 -191l60 -114l123 -123l110 -55h242l111 55l122 123l60 114l63 193v319l-63 189l-60 119 l-122 122l-111 56h-242l-110 -56l-123 -122l-60 -117l-63 -193v-319zM438 1602l94 176l95 67h106l94 -71l60 -60l41 -22h35l38 30l80 158l115 -49l-98 -195l-94 -67h-101l-92 47l-72 70l-47 34h-22l-41 -28l-86 -152z" />
<glyph unicode="&#xd6;" horiz-adv-x="1630" d="M215 573v361l72 209l71 151l150 148l160 80h295l159 -80l150 -148l71 -151l72 -209v-361l-72 -208l-71 -154l-150 -148l-159 -79h-295l-160 79l-150 148l-71 154zM338 592l63 -191l60 -114l123 -123l110 -55h242q22 10 59.5 29t51.5 26l122 123l60 114l63 193v319 l-63 189l-60 119l-122 122l-111 56h-242q-104 -54 -110 -56l-123 -122l-60 -117l-63 -193v-319zM391 1724l156 154l153 -154l-153 -155zM397 410l4 -9zM930 1724l155 154l154 -154l-154 -155zM1229 1102v2l4 -8z" />
<glyph unicode="&#xd8;" horiz-adv-x="1658" d="M215 47l143 195l-57 123l-72 208v361l72 209l72 151l149 148l160 80h295l160 -80l82 -80l129 172l96 -74l-144 -196l58 -121l72 -209v-361l-72 -208l-72 -154l-149 -148l-160 -79h-295l-160 79l-82 80l-131 -172zM352 592l64 -191l26 -53l699 916l-80 79l-111 56h-241 l-111 -56l-123 -122l-59 -117l-64 -193v-319zM518 242l80 -78l111 -55h241l111 55l123 123l59 114l64 193v319l-64 191l-26 53z" />
<glyph unicode="&#xd9;" horiz-adv-x="1638" d="M287 438v934h123v-913l59 -180l113 -109q21 -7 83 -29t97 -32h117l178 59l110 111q9 31 31 90.5t31 89.5v913h123v-934l-74 -223l-158 -158l-221 -73h-158l-223 75l-156 156zM481 1767l58 111l622 -311l-61 -113z" />
<glyph unicode="&#xda;" horiz-adv-x="1638" d="M287 438v934h123v-913l59 -180l113 -109q21 -7 83 -29t97 -32h117l178 59l110 111q9 31 31 90.5t31 89.5v913h123v-934l-74 -223l-158 -158l-221 -73h-158l-223 75l-156 156zM481 1573l619 311l57 -110l-616 -312z" />
<glyph unicode="&#xdb;" horiz-adv-x="1638" d="M287 438v1067h123v-1046l59 -180l113 -109q21 -7 83 -29t97 -32h117l178 59l110 111q9 31 31 90.5t31 89.5v1046h123v-1067l-74 -223l-158 -158l-221 -73h-158l-223 75l-156 156zM481 1677l338 166l338 -166l-57 -110l-281 141q-27 -14 -130.5 -66.5t-149.5 -74.5z" />
<glyph unicode="&#xdc;" horiz-adv-x="1638" d="M287 438v1067h123v-1046l59 -180l113 -109q21 -7 83 -29t97 -32h117l178 59l110 111q9 31 31 90.5t31 89.5v1046h123v-1067l-74 -223l-158 -158l-221 -73h-158l-223 75l-156 156zM330 1724l153 154l154 -154l-154 -155zM1001 1724l154 154l156 -154l-156 -155z" />
<glyph unicode="&#xdd;" horiz-adv-x="1386" d="M76 1321l98 76l518 -588q75 84 253.5 287t266.5 301l99 -76l-557 -625v-696h-123v696q-96 110 -291 328t-264 297zM354 1569l619 311l59 -111l-618 -311z" />
<glyph unicode="&#xde;" horiz-adv-x="1566" d="M287 0v1505h123v-319h555l223 -76l86 -82l78 -160v-229l-78 -160l-88 -84l-221 -73h-555v-322h-123zM410 444h536l176 60l49 51l58 111v176l-58 110l-49 49l-178 62h-534v-619z" />
<glyph unicode="&#xdf;" horiz-adv-x="1353" d="M219 57l82 80v1032l76 154l78 78l153 76h158l154 -76l77 -78l76 -154v-157l-76 -156l-79 -80l-11 -2l74 -24l82 -80l76 -154v-223l-76 -156l-78 -76l-154 -75h-157l-156 75l-98 103v-78l-113 -117zM420 188l137 138l139 -140l-53 -53l57 -29h105l106 54l54 55l55 106v173 l-57 106l-45 47l-175 60h-165v118h161l107 54l53 55l55 106v105l-55 106l-53 54l-107 55h-104l-107 -55l-53 -54l-55 -106v-955z" />
<glyph unicode="&#xe0;" d="M215 426v154l72 213l147 149l154 78h223l156 -78l32 -33v95h119v-1004h-119v94l-32 -33l-156 -75h-223l-154 75l-145 148zM334 444l59 -174l115 -112l106 -54h170q15 7 50 25.5t57 28.5l108 106v475l-108 107l-107 53h-170q-14 -7 -49 -25t-57 -28l-113 -113 q-10 -34 -32 -94t-29 -80v-115zM338 1401l57 108l604 -301l-59 -108z" />
<glyph unicode="&#xe1;" d="M215 426v154l72 213l147 149l154 78h223l156 -78l32 -33v95h119v-1004h-119v94l-32 -33l-156 -75h-223l-154 75l-145 148zM334 444l59 -174l115 -112l106 -54h170q15 7 50 25.5t57 28.5l108 106v475l-108 107l-107 53h-170q-14 -7 -49 -25t-57 -28l-113 -113 q-10 -34 -32 -94t-29 -80v-115zM338 1206l602 301l55 -108l-598 -299z" />
<glyph unicode="&#xe2;" d="M215 426v154l72 213l147 149l154 78h223l156 -78l32 -33v95h119v-1004h-119v94l-32 -33l-156 -75h-223l-154 75l-145 148zM334 444l59 -174l115 -112l106 -54h170q15 7 50 25.5t57 28.5l108 106v475l-108 107l-107 53h-170q-14 -7 -49 -25t-57 -28l-113 -113 q-10 -34 -32 -94t-29 -80v-115zM340 1270l360 239l359 -239l-55 -107l-304 201q-39 -26 -147 -96.5t-156 -102.5z" />
<glyph unicode="&#xe3;" horiz-adv-x="1421" d="M215 426v154l72 213l147 149l156 78h221l156 -78l32 -33v95h121v-1004h-121v94l-32 -33l-156 -75h-221l-156 75l-145 148zM266 1233l246 244h115l196 -197h17l209 211l86 -86l-248 -244h-113l-196 197h-17l-209 -211zM336 444l57 -174l115 -112l106 -54h170q19 9 53.5 27 t53.5 27l108 106v475l-108 107l-107 53h-170q-11 -5 -46.5 -24t-59.5 -29l-113 -113q-9 -29 -29.5 -86.5t-29.5 -87.5v-115z" />
<glyph unicode="&#xe4;" horiz-adv-x="1423" d="M215 426v154l72 213l147 149l156 78h221l156 -78l32 -33v95h121v-1004h-121v94l-32 -33l-156 -75h-221l-156 75l-145 148zM256 1352l150 149l149 -149l-149 -150zM336 444l57 -174l117 -112l104 -54h170q19 9 53.5 27t53.5 27l108 106v475l-108 107l-107 53h-170 q-15 -8 -49 -25.5t-55 -27.5l-115 -113q-9 -29 -29.5 -86.5t-29.5 -87.5v-115zM846 1352l149 149l148 -149l-148 -150z" />
<glyph unicode="&#xe5;" d="M215 426v154l72 213l147 149l154 78h223l156 -78l32 -33v95h119v-1004h-119v94l-32 -33l-156 -75h-223l-154 75l-145 148zM334 444l59 -174l115 -112l106 -54h170q15 7 50 25.5t57 28.5l108 106v475l-108 107l-107 53h-170q-14 -7 -49 -25t-57 -28l-113 -113 q-10 -34 -32 -94t-29 -80v-115zM500 1255v70l24 72l62 59l67 25h72l70 -25l61 -59l25 -72v-70l-25 -69l-61 -62l-70 -24h-72l-67 24l-62 62zM618 1272q0 -2 11 -23l20 -20q11 -7 25 -10h35q6 2 22 10l21 20q5 10 8 25v35l-8 24l-21 19q-16 8 -24 10h-35l-25 -12l-20 -19 l-9 -22v-37z" />
<glyph unicode="&#xe6;" horiz-adv-x="1476" d="M215 360v285l70 213l161 162h179l47 -45v29h119v-31l47 47h180l158 -160l73 -215v-137h-458v-307l96 -97h94l100 52l76 153l105 -55l-93 -188l-163 -80h-168l-47 47v-33h-119v31l-47 -45h-179l-159 157zM334 379l57 -174l105 -101h82l94 97v604l-94 94h-82l-103 -100 l-59 -176v-244zM791 627h337l-59 170l-100 102h-82l-96 -94v-178z" />
<glyph unicode="&#xe7;" horiz-adv-x="1353" d="M215 426v154l72 213l147 149l156 78h221l156 -78l168 -168l-86 -86l-158 158l-107 53h-170q-11 -5 -46.5 -24t-59.5 -29l-113 -113q-9 -29 -29.5 -86.5t-29.5 -87.5v-115l57 -174l115 -112l106 -54h170q19 9 53.5 27t53.5 27l158 157l86 -86l-168 -168l-156 -75h-84v-78 h96l101 -101v-178l-101 -102h-245l-115 115l86 88l80 -82h145l29 28v82l-29 31h-166v197h-18l-156 75l-145 148z" />
<glyph unicode="&#xe8;" horiz-adv-x="1349" d="M215 426v154l72 213l147 149l156 78h221l156 -78l75 -76l78 -155v-203h-784v-64l57 -174l115 -112l106 -54h170q19 9 53.5 27t53.5 27l158 157l86 -86l-168 -168l-156 -75h-221l-156 75l-145 148zM274 1382l52 107l667 -295l-49 -109zM358 627h641v59q-5 9 -24 46t-29 61 l-55 53l-107 53h-170q-11 -5 -46.5 -24t-59.5 -29l-113 -113z" />
<glyph unicode="&#xe9;" horiz-adv-x="1349" d="M215 426v154l72 213l147 149l156 78h221l156 -78l75 -76l78 -155v-203h-784v-64l57 -174l115 -112l106 -54h170q19 9 53.5 27t53.5 27l158 157l86 -86l-168 -168l-156 -75h-221l-156 75l-145 148zM338 1210l672 297l51 -106l-672 -299zM358 627h641v59q-5 9 -24 46 t-29 61l-55 53l-107 53h-170q-11 -5 -46.5 -24t-59.5 -29l-113 -113z" />
<glyph unicode="&#xea;" horiz-adv-x="1349" d="M215 426v154l72 213l147 149l156 78h221l156 -78l75 -76l78 -155v-203h-784v-64l57 -174l115 -112l106 -54h170q19 9 53.5 27t53.5 27l158 157l86 -86l-168 -168l-156 -75h-221l-156 75l-145 148zM340 1266l360 239l359 -239l-55 -107l-304 201q-13 -9 -131.5 -86.5 t-169.5 -112.5zM358 627h641v59q-5 9 -24 46t-29 61l-55 53l-107 53h-170q-11 -5 -46.5 -24t-59.5 -29l-113 -113z" />
<glyph unicode="&#xeb;" horiz-adv-x="1349" d="M215 426v154l72 213l147 149l156 78h221l156 -78l75 -76l78 -155v-203h-784v-64l57 -174l115 -112l106 -54h170q19 9 53.5 27t53.5 27l158 157l86 -86l-168 -168l-156 -75h-221l-156 75l-145 148zM283 1352l149 149l150 -149l-150 -150zM358 627h641v59q-5 9 -24 46 t-29 61l-55 53l-107 53h-170q-11 -5 -46.5 -24t-59.5 -29l-113 -113zM807 1352l149 149l148 -149l-148 -150z" />
<glyph unicode="&#xec;" horiz-adv-x="643" d="M223 1485l88 88l324 -324l-88 -88zM479 0v1004h119v-1004h-119z" />
<glyph unicode="&#xed;" horiz-adv-x="643" d="M223 1249l324 324l88 -88l-324 -324zM258 0v1004h119v-1004h-119z" />
<glyph unicode="&#xee;" horiz-adv-x="890" d="M221 1276l332 248l332 -248l-72 -92l-260 194l-260 -192zM494 0v1004h118v-1004h-118z" />
<glyph unicode="&#xef;" horiz-adv-x="892" d="M209 1352l149 149l150 -149l-150 -150zM496 0v1004h118v-1004h-118zM602 1352l150 149l147 -149l-147 -150z" />
<glyph unicode="&#xf0;" horiz-adv-x="1398" d="M215 426v154l72 213l147 149l154 78h223l158 -80l-25 47l-121 121l-143 72l-154 -103l-55 107l84 55l-215 70l47 114l229 -80l54 -26l268 178l55 -106l-198 -132l104 -51l143 -143l76 -152l66 -333v-152l-74 -217l-145 -148l-154 -75h-223l-154 75l-147 148zM334 444 l57 -174l117 -112l106 -54h170l107 54l113 112l61 176v113l-61 172l-113 115l-107 53h-170l-106 -53l-115 -113l-59 -174v-115z" />
<glyph unicode="&#xf1;" horiz-adv-x="1441" d="M287 1262l248 243h112l197 -196h16l209 211l86 -86l-246 -244h-114l-195 196h-16l-211 -210zM317 0v1004h119v-162l99 100l155 78h223l168 -82l74 -229v-709h-119v686l-59 168l-90 45h-170l-111 -55q-29 -29 -84.5 -86.5t-85.5 -85.5v-672h-119z" />
<glyph unicode="&#xf2;" horiz-adv-x="1398" d="M215 426v154l72 213l147 149l154 78h223l154 -78l145 -147l74 -215v-154l-74 -217l-145 -148l-154 -75h-223l-154 75l-147 148zM334 444l57 -174l117 -112l106 -54h170q15 7 50 25.5t57 28.5l113 112q6 17 28.5 79.5t32.5 96.5v113l-61 172l-113 115l-107 53h-170 q-14 -7 -49 -25t-57 -28l-115 -113q-9 -29 -29.5 -86.5t-29.5 -87.5v-115zM338 1397l53 106l666 -295l-49 -108z" />
<glyph unicode="&#xf3;" horiz-adv-x="1398" d="M215 426v154l72 213l147 149l154 78h223l154 -78l145 -147l74 -215v-154l-74 -217l-145 -148l-154 -75h-223l-154 75l-147 148zM334 444l57 -174l117 -112l106 -54h170q15 7 50 25.5t57 28.5l113 112q6 17 28.5 79.5t32.5 96.5v113l-61 172l-113 115l-107 53h-170 q-14 -7 -49 -25t-57 -28l-115 -113q-9 -29 -29.5 -86.5t-29.5 -87.5v-115zM338 1210l670 297l53 -106l-672 -299z" />
<glyph unicode="&#xf4;" horiz-adv-x="1398" d="M215 426v154l72 213l147 149l154 78h223l154 -78l145 -147l74 -215v-154l-74 -217l-145 -148l-154 -75h-223l-154 75l-147 148zM334 444l57 -174l117 -112l106 -54h170q15 7 50 25.5t57 28.5l113 112q6 17 28.5 79.5t32.5 96.5v113l-61 172l-113 115l-107 53h-170 q-14 -7 -49 -25t-57 -28l-115 -113q-9 -29 -29.5 -86.5t-29.5 -87.5v-115zM340 1270l360 239l359 -239l-55 -107l-304 201q-193 -125 -303 -199z" />
<glyph unicode="&#xf5;" horiz-adv-x="1398" d="M215 426v154l72 213l147 149l154 78h223l154 -78l145 -147l74 -215v-154l-74 -217l-145 -148l-154 -75h-223l-154 75l-147 148zM264 1262l248 243h113l196 -196h17l209 211l86 -86l-246 -244h-115l-194 196h-17l-211 -210zM334 444l57 -174l117 -112l106 -54h170 q15 7 50 25.5t57 28.5l113 112q6 17 28.5 79.5t32.5 96.5v113l-61 172l-113 115l-107 53h-170q-14 -7 -49 -25t-57 -28l-115 -113q-9 -29 -29.5 -86.5t-29.5 -87.5v-115z" />
<glyph unicode="&#xf6;" horiz-adv-x="1398" d="M215 426v154l72 213l147 149l154 78h223l154 -78l145 -147l74 -215v-154l-74 -217l-145 -148l-154 -75h-223l-154 75l-147 148zM256 1352l150 149l149 -149l-149 -150zM334 444l57 -174l117 -112l106 -54h170q15 7 50 25.5t57 28.5l113 112q6 17 28.5 79.5t32.5 96.5v113 l-61 172l-113 115l-107 53h-170l-106 -53l-115 -113q-9 -29 -29.5 -86.5t-29.5 -87.5v-115zM844 1352l149 149l150 -149l-150 -150z" />
<glyph unicode="&#xf7;" horiz-adv-x="1335" d="M303 442v119h873v-119h-873zM590 111l149 149l150 -149l-150 -150zM590 895l149 149l150 -149l-150 -150z" />
<glyph unicode="&#xf8;" horiz-adv-x="1505" d="M215 49l119 129l-31 31l-72 217v154l72 213l148 149l153 78h223l154 -78l33 -31l110 117l95 -72l-121 -129l28 -32l74 -215v-154l-74 -217l-145 -148l-154 -75h-223l-153 75l-31 33l-113 -121zM350 444l60 -174l522 551l-25 25l-106 53h-170l-107 -53l-114 -113l-60 -174 v-115zM500 182l24 -24l107 -54h170l106 54l115 112l59 176v113l-63 178z" />
<glyph unicode="&#xf9;" horiz-adv-x="1411" d="M287 295v709h119v-689q8 -25 27.5 -79t29.5 -84l92 -48h170l111 56q20 20 78 80t92 92v672h118v-1004h-118v162l-101 -101l-153 -75h-226l-166 82zM344 1397l53 106l666 -295l-49 -108z" />
<glyph unicode="&#xfa;" horiz-adv-x="1411" d="M287 295v709h119v-689q8 -25 27.5 -79t29.5 -84l92 -48h170l111 56q20 20 78 80t92 92v672h118v-1004h-118v162l-101 -101l-153 -75h-226l-166 82zM344 1206l670 297l53 -106l-672 -299z" />
<glyph unicode="&#xfb;" horiz-adv-x="1411" d="M287 295v709h119v-689q8 -25 27.5 -79t29.5 -84l92 -48h170l111 56q20 20 78 80t92 92v672h118v-1004h-118v162l-101 -101l-153 -75h-226l-166 82zM346 1270l361 239l358 -239l-55 -107l-303 201q-224 -145 -304 -199z" />
<glyph unicode="&#xfc;" horiz-adv-x="1447" d="M281 1352l149 149l150 -149l-150 -150zM305 295v709h119v-689q8 -25 27.5 -79t29.5 -84l92 -48h170l111 56q20 20 78 80t92 92v672h119v-1004h-119v162l-100 -101l-154 -75h-225l-166 82zM868 1352l150 149l149 -149l-149 -150z" />
<glyph unicode="&#xfd;" horiz-adv-x="1191" d="M88 -352h215l41 43l180 356l-397 928l106 49l357 -827l356 827l101 -49l-406 -955l-199 -405l-92 -88h-262v121zM217 1206l672 297l51 -106l-672 -299z" />
<glyph unicode="&#xfe;" d="M287 -457v1919h119v-553l32 33l156 78h221l156 -78l145 -147l74 -215v-154l-74 -217l-145 -148l-156 -75h-221l-156 75l-32 33v-551h-119zM406 264l108 -106l107 -54h170l106 54l113 112l59 176v113l-59 172l-113 115l-106 53h-170l-107 -53l-108 -107v-475z" />
<glyph unicode="&#xff;" horiz-adv-x="1198" d="M88 -352h215q29 29 41 43q36 73 101.5 201.5t78.5 154.5q-12 28 -167.5 390t-229.5 538l106 49l357 -827l356 827l107 -49l-412 -955l-199 -405l-92 -88h-262v121zM178 1352l150 149l149 -149l-149 -150zM700 1352l150 149l149 -149l-149 -150z" />
<glyph unicode="&#x178;" horiz-adv-x="1525" d="M147 1458l97 76l518 -647q376 467 518 647l98 -76l-555 -694v-764h-123v764q-100 127 -298.5 375.5t-254.5 318.5zM293 1722l153 154l154 -154l-154 -155zM924 1722l155 154l154 -154l-154 -155z" />
<glyph unicode="&#x2c6;" horiz-adv-x="827" d="M82 1241l332 248l331 -248l-71 -92l-260 194l-260 -192z" />
<glyph unicode="&#x2dc;" horiz-adv-x="1032" d="M82 1233l246 244h114l197 -197h16l209 211l86 -86l-248 -244h-112l-197 197h-16l-209 -211z" />
<glyph unicode="&#x2000;" horiz-adv-x="960" />
<glyph unicode="&#x2001;" horiz-adv-x="1921" />
<glyph unicode="&#x2002;" horiz-adv-x="960" />
<glyph unicode="&#x2003;" horiz-adv-x="1921" />
<glyph unicode="&#x2004;" horiz-adv-x="640" />
<glyph unicode="&#x2005;" horiz-adv-x="480" />
<glyph unicode="&#x2006;" horiz-adv-x="320" />
<glyph unicode="&#x2007;" horiz-adv-x="320" />
<glyph unicode="&#x2008;" horiz-adv-x="240" />
<glyph unicode="&#x2009;" horiz-adv-x="384" />
<glyph unicode="&#x200a;" horiz-adv-x="106" />
<glyph unicode="&#x2010;" horiz-adv-x="1871" d="M303 573v119h1266v-119h-1266z" />
<glyph unicode="&#x2011;" horiz-adv-x="1871" d="M303 573v119h1266v-119h-1266z" />
<glyph unicode="&#x2012;" horiz-adv-x="1871" d="M303 573v119h1266v-119h-1266z" />
<glyph unicode="&#x2013;" horiz-adv-x="1629" d="M303 573v119h1024v-119h-1024z" />
<glyph unicode="&#x2014;" horiz-adv-x="2355" d="M303 573v119h1749v-119h-1749z" />
<glyph unicode="&#x2018;" horiz-adv-x="749" d="M266 1339v168l78 154l102 102l86 -86l-92 -90l-41 -80l142 -145l-150 -150z" />
<glyph unicode="&#x2019;" horiz-adv-x="749" d="M209 1614l149 149l125 -127v-168l-77 -153l-103 -103l-86 86l92 91l41 79z" />
<glyph unicode="&#x201c;" horiz-adv-x="1120" d="M266 1339v168l78 154l102 102l86 -86l-92 -90l-41 -80l142 -145l-150 -150zM637 1339v168l78 154l102 102l86 -86l-92 -90l-41 -80l141 -145l-149 -150z" />
<glyph unicode="&#x201d;" horiz-adv-x="1116" d="M209 1614l149 149l125 -127v-168l-77 -153l-103 -103l-86 86l92 91l41 79zM575 1614l150 149l125 -127v-168l-78 -153l-102 -103l-86 86l92 91l41 79z" />
<glyph unicode="&#x202f;" horiz-adv-x="384" />
<glyph unicode="&#x205f;" horiz-adv-x="480" />
<glyph unicode="&#x25fc;" horiz-adv-x="1034" d="M0 0v1034h1034v-1034h-1034z" />
</font>
</defs>
</svg>
