<?xml version="1.0" standalone="no"?>
<!DOCTYPE svg PUBLIC "-//W3C//DTD SVG 1.1//EN" "http://www.w3.org/Graphics/SVG/1.1/DTD/svg11.dtd" >
<svg xmlns="http://www.w3.org/2000/svg">
<metadata></metadata>
<defs>
<font id="sheltermedium" horiz-adv-x="1177" >
<font-face units-per-em="2048" ascent="1536" descent="-512" />
<missing-glyph horiz-adv-x="516" />
<glyph horiz-adv-x="0" />
<glyph horiz-adv-x="682" />
<glyph unicode=" "  horiz-adv-x="516" />
<glyph unicode="&#x09;" horiz-adv-x="516" />
<glyph unicode="&#xa0;" horiz-adv-x="516" />
<glyph unicode="!" horiz-adv-x="655" d="M176 1536h303l-57 -1042h-189zM188 0v305h279v-305h-279z" />
<glyph unicode="&#x22;" horiz-adv-x="962" d="M164 1004v532h229v-532h-229zM569 1004v532h230v-532h-230z" />
<glyph unicode="#" horiz-adv-x="1546" d="M184 360v211h224v271h-224v211h224v336h229v-336h272v336h230v-336h223v-211h-223v-271h223v-211h-223v-360h-230v360h-272v-360h-229v360h-224zM637 571h272v271h-272v-271z" />
<glyph unicode="$" d="M115 356l219 35q11 -95 80.5 -150t183.5 -55q95 0 156 48.5t61 136.5q0 153 -211 202l-117 27q-172 40 -266 139.5t-94 261.5q0 149 95.5 259.5t244.5 140.5v166h229v-166q135 -26 220 -124.5t102 -242.5l-215 -24q-37 178 -232 178q-94 0 -151.5 -47t-57.5 -125 q0 -146 193 -191l121 -28q375 -89 375 -410q0 -160 -99.5 -270t-255.5 -135v-166h-229v166q-145 24 -237.5 124.5t-114.5 249.5z" />
<glyph unicode="%" horiz-adv-x="1849" d="M61 1053q0 149 105 254.5t254 105.5t254.5 -105.5t105.5 -254.5t-105.5 -254t-254.5 -105t-254 105t-105 254zM254 0l1079 1389h262l-1079 -1389h-262zM270 1053q0 -66 44 -113t106 -47q63 0 107 47t44 113q0 67 -44 114t-107 47q-62 0 -106 -47t-44 -114zM1069 332 q0 149 104.5 254.5t253.5 105.5t255 -105.5t106 -254.5t-106 -254t-255 -105t-253.5 105t-104.5 254zM1278 332q0 -66 44 -113t105 -47q63 0 107.5 47t44.5 113q0 67 -44.5 114.5t-107.5 47.5q-62 0 -105.5 -47.5t-43.5 -114.5z" />
<glyph unicode="&#x26;" horiz-adv-x="1335" d="M117 391q0 113 48.5 210t135.5 155q-184 130 -184 358q0 191 132.5 319t328.5 128q198 0 348 -84l-66 -203q-133 65 -280 65q-101 0 -165.5 -63.5t-64.5 -161.5q0 -100 70.5 -167.5t175.5 -67.5h258v247h233v-247h218v-222h-218v-657h-227v119q-129 -144 -346 -144 q-183 0 -290 113.5t-107 302.5zM350 391q0 -83 58 -136.5t145 -53.5q140 0 220.5 93.5t80.5 264.5v98h-225q-134 0 -206.5 -75t-72.5 -191z" />
<glyph unicode="'" horiz-adv-x="557" d="M164 1004v532h229v-532h-229z" />
<glyph unicode="(" horiz-adv-x="763" d="M160 549q0 297 101 548t298 439h254q-216 -221 -320 -463.5t-104 -523.5t104 -525t320 -464h-254q-197 188 -298 439.5t-101 549.5z" />
<glyph unicode=")" horiz-adv-x="761" d="M-51 -440q216 220 320 464t104 525t-104 523.5t-320 463.5h254q197 -188 298 -439t101 -548q0 -298 -101 -549.5t-298 -439.5h-254z" />
<glyph unicode="*" horiz-adv-x="974" d="M31 1270h344l112 332l111 -332h346l-278 -203l116 -346l-295 215l-294 -215l114 346z" />
<glyph unicode="+" d="M152 582v215h323v358h227v-358h324v-215h-324v-363h-227v363h-323z" />
<glyph unicode="," horiz-adv-x="632" d="M166 -178q83 0 117 44t34 134h-149v319h297v-319q0 -143 -78.5 -222t-220.5 -79v123z" />
<glyph unicode="-" horiz-adv-x="1032" d="M184 498v215h664v-215h-664z" />
<glyph unicode="." horiz-adv-x="628" d="M168 0v319h293v-319h-293z" />
<glyph unicode="/" horiz-adv-x="1036" d="M-41 -440l858 1976h223l-858 -1976h-223z" />
<glyph unicode="0" d="M94 694q0 208 54.5 368.5t168 255.5t273.5 95q159 0 272.5 -95t168 -255t54.5 -369t-54.5 -369t-168 -255t-272.5 -95q-160 0 -273.5 95t-168 255.5t-54.5 368.5zM328 694q0 -221 68 -359t194 -138t194 138t68 359t-68 359.5t-194 138.5t-194 -138.5t-68 -359.5z" />
<glyph unicode="1" d="M154 0v225h344v840l-287 -147v229l455 266h65v-1188h344v-225h-921z" />
<glyph unicode="2" d="M92 0v61l586 611q131 134 131 274q0 110 -66 176t-176 66q-108 0 -172 -69.5t-69 -182.5l-234 18q9 200 142.5 329.5t332.5 129.5q207 0 342 -131.5t135 -335.5q0 -124 -51.5 -226t-150.5 -206l-279 -289h524v-225h-995z" />
<glyph unicode="3" d="M113 264l233 17q0 -95 68.5 -161.5t165.5 -66.5t166 66.5t69 161.5q0 98 -72.5 163.5t-179.5 65.5h-78v221h78q106 0 179 63.5t73 163.5q0 95 -69 162.5t-166 67.5t-165.5 -67.5t-68.5 -162.5l-233 17q9 186 144.5 312t322.5 126q193 0 331 -133.5t138 -321.5 q0 -104 -49 -194t-130 -146q81 -54 130 -143.5t49 -193.5q0 -188 -138 -320.5t-331 -132.5q-187 0 -322.5 125t-144.5 311z" />
<glyph unicode="4" d="M68 334v61l317 1141h231l-276 -993h367v522h233v-522h197v-209h-197v-334h-233v334h-639z" />
<glyph unicode="5" horiz-adv-x="1146" d="M92 315l234 17q0 -121 76.5 -199t195.5 -78t195.5 80t76.5 201q0 127 -73.5 203.5t-198.5 76.5q-127 0 -207 -90l-225 88l59 775h793v-230h-578l-24 -354q70 37 217 37q137 0 245 -66t167 -179.5t59 -252.5q0 -219 -144.5 -366.5t-361.5 -147.5q-214 0 -356.5 136.5 t-149.5 348.5z" />
<glyph unicode="6" d="M76 481q0 75 25 155.5t65 139.5l524 780h279l-381 -569q217 0 362.5 -145.5t145.5 -360.5q0 -141 -66.5 -257t-183.5 -182.5t-260 -66.5t-260 66.5t-183.5 182.5t-66.5 257zM311 481q0 -120 77.5 -199t197.5 -79t197 79t77 199q0 121 -77.5 200t-196.5 79 q-120 0 -197.5 -79.5t-77.5 -199.5z" />
<glyph unicode="7" d="M90 1155v234h1012v-82l-664 -1454h-262l600 1302h-686z" />
<glyph unicode="8" d="M121 428q0 99 42.5 187t117.5 151q-75 63 -117.5 151t-42.5 189q0 124 63 229t170.5 165.5t233.5 60.5q193 0 331 -133.5t138 -321.5q0 -100 -43.5 -188.5t-118.5 -151.5q75 -63 118.5 -151t43.5 -187q0 -188 -138 -320.5t-331 -132.5t-330 132.5t-137 320.5zM354 428 q0 -95 68.5 -161t165.5 -66t166 66t69 161t-69 162t-166 67t-165.5 -67t-68.5 -162zM354 1106q0 -95 68.5 -161t165.5 -66t166 66t69 161t-69 162t-166 67t-165.5 -67t-68.5 -162z" />
<glyph unicode="9" d="M82 907q0 141 66.5 257t183.5 182.5t260 66.5t260 -66.5t183.5 -182.5t66.5 -257q0 -75 -25 -155.5t-65 -139.5l-525 -780h-278l381 569q-217 0 -362.5 145.5t-145.5 360.5zM317 907q0 -120 77.5 -199t197.5 -79t197 79t77 199q0 121 -77.5 200t-196.5 79 q-120 0 -197.5 -79.5t-77.5 -199.5z" />
<glyph unicode=":" horiz-adv-x="632" d="M168 0v313h297v-313h-297zM168 627v313h297v-313h-297z" />
<glyph unicode=";" horiz-adv-x="632" d="M166 -178q83 0 117 44t34 134h-149v319h297v-319q0 -143 -78.5 -222t-220.5 -79v123zM168 627v313h297v-313h-297z" />
<glyph unicode="&#x3c;" d="M166 555v201l874 418v-254l-600 -265l600 -264v-254z" />
<glyph unicode="=" d="M160 334v215h858v-215h-858zM160 788v216h858v-216h-858z" />
<glyph unicode="&#x3e;" d="M137 137v254l600 264l-600 265v254l875 -418v-201z" />
<glyph unicode="?" horiz-adv-x="870" d="M-20 1192q12 168 129.5 272.5t302.5 104.5q197 0 315.5 -108t118.5 -292q0 -112 -47 -196.5t-140 -167.5l-84 -74q-83 -75 -83 -221v-27h-226v47q0 116 29.5 200t105.5 151l97 86q58 50 85 95.5t27 108.5q0 85 -52.5 131t-145.5 46q-193 0 -209 -189zM242 0v305h282v-305 h-282z" />
<glyph unicode="@" horiz-adv-x="1773" d="M106 606q0 169 65.5 319t177 257t265.5 169t324 62q217 0 389 -92t268.5 -258t96.5 -377q0 -189 -102 -307.5t-265 -118.5q-156 0 -240 90q-46 -38 -107 -63t-122 -25q-144 0 -226.5 87t-82.5 231q0 171 121 285t299 114h243v-397q0 -56 29 -88.5t86 -32.5q139 0 139 215 q0 238 -144 379t-386 141q-168 0 -304.5 -74.5t-216 -210t-79.5 -305.5q0 -249 148 -403t395 -154q203 0 340 82l90 -188q-81 -53 -194.5 -82t-235.5 -29q-168 0 -312 58.5t-244.5 161t-157.5 246t-57 308.5zM758 592q0 -129 110 -129q63 0 100.5 45t37.5 113v159h-35 q-95 0 -154 -49.5t-59 -138.5z" />
<glyph unicode="A" horiz-adv-x="1267" d="M-18 0l526 1536h252l526 -1536h-250l-106 324h-592l-107 -324h-249zM416 557h436l-219 700z" />
<glyph unicode="B" horiz-adv-x="1200" d="M174 0v1536h393q180 0 307 -127t127 -307q0 -79 -28.5 -149t-79.5 -117q102 -54 163.5 -155.5t61.5 -225.5q0 -188 -129.5 -321.5t-316.5 -133.5h-498zM412 233h235q99 0 165.5 62.5t66.5 159.5t-66 158t-166 61h-235v-441zM412 903h149q88 0 145.5 56t57.5 143t-61 144 t-150 57h-141v-400z" />
<glyph unicode="C" horiz-adv-x="1355" d="M92 768q0 164 58.5 311.5t160.5 254.5t246 170t307 63q237 0 426 -125v-268h-26q-79 68 -184.5 109.5t-211.5 41.5q-148 0 -270 -75t-191 -202.5t-69 -279.5t69 -279.5t191 -202.5t270 -75q106 0 212 41t182 106h28v-266q-186 -123 -426 -123q-163 0 -307 63t-246 170 t-160.5 254.5t-58.5 311.5z" />
<glyph unicode="D" horiz-adv-x="1347" d="M174 0v1536h324q212 0 386 -102t272.5 -278t98.5 -388t-98.5 -388t-272.5 -278t-386 -102h-324zM412 236h77q229 0 377 151t148 381t-148 380t-377 150h-77v-1062z" />
<glyph unicode="E" horiz-adv-x="1064" d="M174 0v1536h768v-238h-530v-393h508v-237h-508v-430h540v-238h-778z" />
<glyph unicode="F" horiz-adv-x="1005" d="M168 0v1536h768v-238h-530v-393h507v-237h-507v-668h-238z" />
<glyph unicode="G" horiz-adv-x="1755" d="M94 768q0 162 61.5 310t166 255t250.5 170.5t309 63.5q410 0 637 -293l-170 -162q-160 213 -467 213q-149 0 -273.5 -75t-196 -203t-71.5 -279q0 -152 69.5 -279.5t192.5 -202.5t272 -75q209 0 354 114.5t158 295.5h-475v219h725v-121q0 -216 -98 -387.5t-272.5 -267 t-393.5 -95.5q-216 0 -395 107.5t-281 291t-102 400.5z" />
<glyph unicode="H" horiz-adv-x="1396" d="M174 0v1536h238v-631h573v631h238v-1536h-238v668h-573v-668h-238z" />
<glyph unicode="I" horiz-adv-x="585" d="M174 0v1536h238v-1536h-238z" />
<glyph unicode="J" horiz-adv-x="1003" d="M0 49l231 51q19 -65 65 -103t110 -38q90 0 138 61.5t48 159.5v1356h237v-1366q0 -191 -118 -314.5t-305 -123.5q-146 0 -254.5 88.5t-151.5 228.5z" />
<glyph unicode="K" horiz-adv-x="1257" d="M174 0v1536h238v-586l532 586h316l-512 -565l571 -971h-281l-456 786l-170 -188v-598h-238z" />
<glyph unicode="L" horiz-adv-x="923" d="M174 0v1536h240v-1298h504v-238h-744z" />
<glyph unicode="M" horiz-adv-x="1931" d="M88 0l191 1536h247l432 -1130l435 1130h260l190 -1536h-237l-138 1102l-426 -1102h-165l-416 1096l-135 -1096h-238z" />
<glyph unicode="N" horiz-adv-x="1437" d="M174 0v1536h213l639 -1067v1067h238v-1536h-213l-639 1067v-1067h-238z" />
<glyph unicode="O" horiz-adv-x="1753" d="M94 768q0 162 61 310t165 255t249.5 170.5t307.5 63.5q216 0 396 -107.5t283 -291t103 -400.5t-103 -400.5t-283 -291t-396 -107.5q-162 0 -307.5 63.5t-249.5 170.5t-165 255t-61 310zM342 768q0 -151 70.5 -278.5t193.5 -202t271 -74.5t271 74.5t193 202t70 278.5 t-70 278.5t-193 202t-271 74.5t-271 -74.5t-193.5 -202t-70.5 -278.5z" />
<glyph unicode="P" horiz-adv-x="1161" d="M174 0v1536h506q187 0 316.5 -132.5t129.5 -320.5t-129.5 -319t-316.5 -131h-268v-633h-238zM412 866h258q92 0 154.5 62.5t62.5 154.5q0 93 -62.5 156.5t-154.5 63.5h-258v-437z" />
<glyph unicode="Q" horiz-adv-x="1744" d="M92 768q0 217 103 400.5t283 291t396 107.5q162 0 307.5 -63.5t249.5 -170.5t165 -255t61 -310q0 -290 -178 -510l237 -223v-12l-270 -23l-121 113q-203 -144 -451 -144q-216 0 -396 107.5t-283 291t-103 400.5zM338 768q0 -151 70.5 -279t194 -203t271.5 -75 q143 0 269 74l-238 223v12l271 23l122 -117q113 148 113 342q0 151 -71 279t-194.5 203t-271.5 75t-271.5 -75t-194 -203t-70.5 -279z" />
<glyph unicode="R" horiz-adv-x="1323" d="M174 0v1536h549q187 0 316.5 -132.5t129.5 -320.5q0 -111 -47.5 -205t-130.5 -157q134 -53 176 -303l70 -418h-236l-57 346q-12 70 -29 117t-50.5 88.5t-90.5 61.5t-139 20h-223v-633h-238zM412 866h311q87 0 147 63t60 154t-60 155.5t-147 64.5h-311v-437z" />
<glyph unicode="S" horiz-adv-x="1155" d="M68 360l233 70q18 -101 89.5 -167t182.5 -66q113 0 181.5 58.5t68.5 166.5q0 170 -225 225l-119 29q-176 43 -279.5 154.5t-103.5 283.5q0 194 139.5 323.5t339.5 129.5q177 0 302.5 -92t158.5 -252l-229 -70q-24 86 -83.5 132t-152.5 46q-101 0 -164 -57.5t-63 -151.5 q0 -168 191 -215l122 -30q191 -47 302.5 -158t111.5 -289q0 -139 -69 -245t-184.5 -161t-258.5 -55q-193 0 -323.5 106t-167.5 285z" />
<glyph unicode="T" horiz-adv-x="983" d="M20 1298v238h943v-238h-353v-1298h-237v1298h-353z" />
<glyph unicode="U" horiz-adv-x="1372" d="M166 479v1057h237v-1044q0 -123 81.5 -209t201.5 -86t201.5 86t81.5 209v1044h237v-1057q0 -217 -150.5 -363.5t-369.5 -146.5t-369.5 146.5t-150.5 363.5z" />
<glyph unicode="V" horiz-adv-x="1329" d="M-33 1536h250l449 -1212l446 1212h250l-602 -1536h-191z" />
<glyph unicode="W" horiz-adv-x="1910" d="M-4 1536h237l244 -1159l365 1159h215l375 -1165l245 1165h238l-340 -1536h-256l-371 1157l-368 -1157h-244z" />
<glyph unicode="X" horiz-adv-x="1138" d="M29 0l413 774l-407 762h252l284 -532l281 532h248l-408 -760l418 -776h-252l-293 547l-289 -547h-247z" />
<glyph unicode="Y" horiz-adv-x="1169" d="M-61 1536h266l379 -662l381 662h266l-526 -922v-614h-238v610z" />
<glyph unicode="Z" horiz-adv-x="1050" d="M37 0v209l680 1089h-654v238h926v-205l-682 -1093h711v-238h-981z" />
<glyph unicode="[" horiz-adv-x="763" d="M205 -440v1976h575v-215h-346v-1546h346v-215h-575z" />
<glyph unicode="\" horiz-adv-x="1036" d="M-4 1536h223l858 -1976h-223z" />
<glyph unicode="]" horiz-adv-x="763" d="M-16 -225h346v1546h-346v215h575v-1976h-575v215z" />
<glyph unicode="^" d="M72 287l411 874h213l412 -874h-254l-264 592l-264 -592h-254z" />
<glyph unicode="_" horiz-adv-x="1298" d="M168 0v215h962v-215h-962z" />
<glyph unicode="`" horiz-adv-x="782" d="M205 1286v256l373 -211v-231z" />
<glyph unicode="a" horiz-adv-x="1097" d="M102 283q0 82 33 143.5t92 98t132.5 54t160.5 17.5q136 0 223 -43v96q0 92 -51 139.5t-145 47.5q-86 0 -136 -36.5t-69 -115.5l-209 43q23 111 105 193q108 108 323 108q188 0 296 -104t108 -291v-469q0 -82 12 -150v-14h-203q-10 47 -14 104q-120 -129 -324 -129 q-144 0 -239 85t-95 223zM326 276q0 -60 45.5 -91t113.5 -31q113 0 185.5 59.5t72.5 165.5q-95 33 -204 33q-86 0 -149.5 -33.5t-63.5 -102.5z" />
<glyph unicode="b" horiz-adv-x="1239" d="M150 0v1536h229v-645q43 59 125 98t178 39q107 0 196 -41t148 -112.5t92 -168t33 -206.5q0 -148 -57 -266.5t-165.5 -188.5t-250.5 -70q-95 0 -173.5 38t-125.5 98v-111h-229zM379 500q0 -133 74 -217t198 -84q125 0 197 85.5t72 219.5q0 133 -73 217t-198 84 q-124 0 -197 -85.5t-73 -219.5z" />
<glyph unicode="c" horiz-adv-x="962" d="M88 504q0 220 144 372t360 152q160 0 272 -80v-217h-22q-104 80 -254 80q-122 0 -195.5 -88.5t-73.5 -222.5q0 -132 76 -219.5t197 -87.5q138 0 248 73h24v-215q-112 -76 -276 -76q-215 0 -357.5 154t-142.5 375z" />
<glyph unicode="d" horiz-adv-x="1239" d="M88 504q0 148 57 266.5t165.5 188t250.5 69.5q95 0 173.5 -38t125.5 -97v643h230v-1536h-230v113q-43 -60 -125 -99t-178 -39q-142 0 -250 71t-163.5 190.5t-55.5 267.5zM319 500q0 -138 73.5 -222.5t197.5 -84.5q122 0 196 86.5t74 224.5q0 137 -74.5 222t-197.5 85 t-196 -86.5t-73 -224.5z" />
<glyph unicode="e" horiz-adv-x="1126" d="M88 504q0 227 134 375.5t353 148.5q207 0 336 -138.5t129 -350.5q0 -64 -2 -103h-714q9 -115 83 -187.5t181 -72.5q84 0 141.5 35.5t104.5 112.5l194 -91v-14q-73 -137 -203 -199q-95 -45 -233 -45q-229 0 -366.5 148t-137.5 381zM330 614h481q-15 100 -78 156.5 t-162 56.5q-98 0 -162 -58t-79 -155z" />
<glyph unicode="f" horiz-adv-x="753" d="M25 784v215h217v58q0 177 99.5 284t272.5 107q62 0 109 -18v-205h-10q-44 8 -99 8q-143 0 -143 -172v-62h254v-215h-254v-784h-229v784h-217z" />
<glyph unicode="g" horiz-adv-x="1220" d="M88 512q0 223 124 369.5t335 146.5q92 0 169.5 -39t125.5 -102v117h229v-951q0 -241 -134.5 -384.5t-371.5 -143.5q-187 0 -309 88t-154 248l217 49q19 -77 83.5 -125.5t158.5 -48.5q150 0 215.5 83t65.5 242v68q-46 -59 -123.5 -94t-167.5 -35q-212 0 -337.5 145 t-125.5 367zM319 516q0 -127 71 -210t190 -83t190.5 81t71.5 208t-71.5 210t-190.5 83t-190 -81t-71 -208z" />
<glyph unicode="h" horiz-adv-x="1144" d="M150 0v1536h229v-627q115 119 274 119q162 0 260.5 -108t98.5 -275v-645h-230v608q0 95 -48.5 148t-139.5 53q-77 0 -127.5 -39t-73.5 -108q-14 -40 -14 -109v-553h-229z" />
<glyph unicode="i" horiz-adv-x="528" d="M98 1382q0 71 48 119.5t118 48.5t118 -48.5t48 -119.5t-48 -119.5t-118 -48.5t-118 48.5t-48 119.5zM150 0v1004h229v-1004h-229z" />
<glyph unicode="j" horiz-adv-x="528" d="M98 1382q0 71 48 119.5t118 48.5t118 -48.5t48 -119.5t-48 -119.5t-118 -48.5t-118 48.5t-48 119.5zM150 -440v1444h229v-1444h-229z" />
<glyph unicode="k" horiz-adv-x="1110" d="M150 0v1536h229v-907l387 372h301l-365 -352l416 -649h-260l-311 498l-168 -164v-334h-229z" />
<glyph unicode="l" horiz-adv-x="528" d="M150 0v1536h229v-1536h-229z" />
<glyph unicode="m" horiz-adv-x="1724" d="M150 0v1004h229v-95q110 119 258 119q97 0 171.5 -46t121.5 -128q115 174 313 174q157 0 252.5 -107.5t95.5 -273.5v-647h-229v610q0 94 -45 146.5t-131 52.5q-140 0 -187 -143q-14 -40 -14 -109v-557h-229v610q0 94 -45 146.5t-131 52.5q-140 0 -187 -143 q-14 -40 -14 -109v-557h-229z" />
<glyph unicode="n" horiz-adv-x="1144" d="M150 0v1004h229v-95q115 119 274 119q162 0 260.5 -108t98.5 -275v-645h-230v608q0 95 -48.5 148t-139.5 53q-77 0 -127.5 -39t-73.5 -108q-14 -40 -14 -109v-553h-229z" />
<glyph unicode="o" horiz-adv-x="1179" d="M88 504q0 223 142.5 373.5t361.5 150.5q144 0 259 -70.5t178 -190.5t63 -267q0 -223 -142.5 -374t-361.5 -151q-218 0 -359 152.5t-141 376.5zM319 500q0 -135 75.5 -221t197.5 -86q121 0 194.5 87.5t73.5 223.5q0 135 -75 221t-197 86q-121 0 -195 -87.5t-74 -223.5z " />
<glyph unicode="p" horiz-adv-x="1239" d="M150 -440v1444h229v-113q43 59 125 98t178 39q107 0 196 -41t148 -112.5t92 -168t33 -206.5q0 -148 -57 -266.5t-165.5 -188.5t-250.5 -70q-95 0 -173.5 38t-125.5 98v-551h-229zM379 500q0 -137 74.5 -222t197.5 -85t196 86.5t73 224.5t-73.5 222.5t-197.5 84.5 q-122 0 -196 -86.5t-74 -224.5z" />
<glyph unicode="q" horiz-adv-x="1239" d="M88 504q0 148 57 266.5t165.5 188t250.5 69.5q95 0 173.5 -38t125.5 -97v111h230v-1444h-230v553q-43 -60 -125 -99t-178 -39q-142 0 -250 71t-163.5 190.5t-55.5 267.5zM319 500q0 -133 73 -217t198 -84q124 0 197 85t73 220q0 133 -74 217t-198 84q-125 0 -197 -85.5 t-72 -219.5z" />
<glyph unicode="r" horiz-adv-x="802" d="M150 0v1004h229v-115q104 139 270 139q55 0 107 -20l-41 -232q-58 25 -125 25q-77 0 -126 -44t-71 -116q-14 -54 -14 -109v-532h-229z" />
<glyph unicode="s" horiz-adv-x="964" d="M74 242l194 67q23 -67 83.5 -105t144.5 -38q68 0 120 31.5t52 89.5q0 87 -142 110l-143 25q-130 23 -206.5 96t-76.5 193q0 148 110 232.5t271 84.5q143 0 247 -60.5t140 -172.5l-188 -74q-52 117 -207 117q-66 0 -112 -31.5t-46 -87.5q0 -37 33 -64t94 -37l144 -26 q137 -25 217 -95t80 -190q0 -99 -54.5 -175.5t-142 -115.5t-192.5 -39q-160 0 -270 69.5t-150 195.5z" />
<glyph unicode="t" horiz-adv-x="804" d="M33 784v215h198v291h230v-291h241v-215h-241v-417q0 -94 33 -135.5t120 -41.5q44 0 119 21h10v-199q-29 -16 -83 -26.5t-99 -10.5q-165 0 -247.5 93.5t-82.5 265.5v450h-198z" />
<glyph unicode="u" horiz-adv-x="1120" d="M135 408v596h230v-584q0 -99 50.5 -160t143.5 -61t145 61.5t52 159.5v584h229v-596q0 -190 -119 -311.5t-307 -121.5t-306 121.5t-118 311.5z" />
<glyph unicode="v" horiz-adv-x="985" d="M-14 1004h252l254 -707l256 707h251l-405 -1004h-201z" />
<glyph unicode="w" horiz-adv-x="1581" d="M10 1004h236l188 -719l258 716h197l258 -716l188 719h236l-301 -1004h-234l-245 696l-246 -696h-234z" />
<glyph unicode="x" horiz-adv-x="966" d="M25 0l333 506l-327 498h256l196 -306l197 306h256l-330 -498l336 -506h-256l-203 313l-202 -313h-256z" />
<glyph unicode="y" horiz-adv-x="1044" d="M-14 1004h260l280 -601l283 601h260l-704 -1428h-254v10l292 574z" />
<glyph unicode="z" horiz-adv-x="974" d="M82 0v188l485 596h-458v220h757v-185l-489 -600h532v-219h-827z" />
<glyph unicode="{" horiz-adv-x="856" d="M92 444v211h205v650q0 95 67 163t162 68h346v-215h-346v-573q0 -62 -30 -115t-82 -84q52 -31 82 -84t30 -115v-575h346v-215h-346q-95 0 -162 68t-67 163v653h-205z" />
<glyph unicode="|" horiz-adv-x="638" d="M205 -440v1976h229v-1976h-229z" />
<glyph unicode="}" horiz-adv-x="856" d="M-16 -225h346v575q0 62 30 115t82 84q-52 31 -82 84t-30 115v573h-346v215h346q95 0 162 -68t67 -163v-650h205v-211h-205v-653q0 -95 -67 -163t-162 -68h-346v215z" />
<glyph unicode="~" d="M160 596v219q50 45 119 70.5t143 25.5q49 0 92 -15.5t75.5 -37.5t63 -44.5t67 -38t75.5 -15.5q78 0 122.5 18.5t100.5 63.5v-219q-106 -95 -240 -95q-59 0 -112.5 24t-87 52t-79.5 52t-93 24q-80 0 -136.5 -20.5t-109.5 -63.5z" />
<glyph unicode="&#xa1;" horiz-adv-x="667" d="M176 -440l57 1042h189l57 -1042h-303zM188 791v305h279v-305h-279z" />
<glyph unicode="&#xa2;" d="M188 694q0 178 97 315t256 187v193h229v-177q112 -12 203 -73v-254q-53 53 -129.5 81.5t-155.5 28.5q-119 0 -193.5 -88t-74.5 -217q0 -128 76 -214.5t196 -86.5q75 0 151.5 28.5t129.5 78.5v-248q-94 -63 -203 -78v-170h-229v186q-159 50 -256 189t-97 319z" />
<glyph unicode="&#xa3;" d="M160 0v207q91 34 144.5 103.5t57.5 164.5h-202v215h162q-8 16 -36 67.5t-40.5 78.5t-25.5 76t-13 96q0 190 121 297.5t327 107.5q192 0 312 -102.5t147 -266.5l-231 -51q-14 88 -74 143.5t-154 55.5q-97 0 -153 -50.5t-56 -140.5q0 -42 9 -82t31.5 -86.5t35 -68.5 t43.5 -74h307v-215h-280q-9 -161 -129 -260h649v-215h-952z" />
<glyph unicode="&#xa5;" d="M0 1389h248l340 -609l342 609h248l-269 -471h152v-216h-275l-77 -139v-4h352v-215h-352v-344h-238v344h-354v215h354l-82 143h-272v216h149z" />
<glyph unicode="&#xa6;" horiz-adv-x="638" d="M205 356h229v-794h-229v794zM205 741v795h229v-795h-229z" />
<glyph unicode="&#xa7;" horiz-adv-x="1003" d="M86 637q0 147 109 235q-76 82 -76 211q0 141 110 235.5t273 94.5q136 0 236.5 -62t135.5 -171l-190 -99q-32 63 -77.5 94t-114.5 31q-67 0 -106.5 -30.5t-39.5 -88.5q0 -40 30 -68t85 -40l176 -39q281 -64 281 -332q0 -149 -109 -237q76 -79 76 -209q0 -141 -110 -235.5 t-273 -94.5q-136 0 -237 62.5t-136 171.5l190 98q32 -63 77.5 -94t115.5 -31q67 0 106 30.5t39 88.5q0 40 -29.5 68t-84.5 40l-176 39q-281 64 -281 332zM317 647q0 -106 119 -131l154 -35q44 11 70 41t26 76q0 106 -119 131l-155 35q-95 -27 -95 -117z" />
<glyph unicode="&#xa8;" horiz-adv-x="1185" d="M205 1290q0 72 48 121t120 49t120 -49t48 -121t-48 -121t-120 -49t-120 49t-48 121zM645 1290q0 72 48 121t120 49t120 -49t48 -121t-48 -121t-120 -49t-120 49t-48 121z" />
<glyph unicode="&#xa9;" horiz-adv-x="1802" d="M102 768q0 162 63.5 310t170.5 255t255 170.5t310 63.5t310 -63.5t255 -170.5t170.5 -255t63.5 -310t-63.5 -310t-170.5 -255t-255 -170.5t-310 -63.5t-310 63.5t-255 170.5t-170.5 255t-63.5 310zM330 768q0 -119 45.5 -226.5t122 -185.5t182 -124t221.5 -46 q155 0 286.5 77.5t208.5 212t77 292.5t-77 292.5t-208.5 212t-286.5 77.5q-116 0 -221.5 -46t-182 -124t-122 -185.5t-45.5 -226.5zM539 766q0 160 113.5 273.5t273.5 113.5q101 0 183 -51t134 -135l-172 -129q-58 98 -145 98q-66 0 -113 -50t-47 -120t47 -120t113 -50 q90 0 145 100l170 -133q-54 -85 -134 -134.5t-181 -49.5q-160 0 -273.5 113.5t-113.5 273.5z" />
<glyph unicode="&#xab;" horiz-adv-x="1189" d="M106 504v41l240 352h277l-250 -373l250 -372h-277zM575 504v41l240 352h277l-250 -373l250 -372h-277z" />
<glyph unicode="&#xad;" horiz-adv-x="1032" d="M184 498v215h664v-215h-664z" />
<glyph unicode="&#xae;" horiz-adv-x="1802" d="M102 768q0 162 63.5 310t170.5 255t255 170.5t310 63.5t310 -63.5t255 -170.5t170.5 -255t63.5 -310t-63.5 -310t-170.5 -255t-255 -170.5t-310 -63.5t-310 63.5t-255 170.5t-170.5 255t-63.5 310zM330 768q0 -119 45.5 -226.5t122 -185.5t182 -124t221.5 -46 q155 0 286.5 77.5t208.5 212t77 292.5t-77 292.5t-208.5 212t-286.5 77.5q-116 0 -221.5 -46t-182 -124t-122 -185.5t-45.5 -226.5zM627 416v721h340q107 0 179.5 -72.5t72.5 -179.5q0 -74 -36.5 -133t-97.5 -90l148 -246h-242l-123 217h-22v-217h-219zM846 821h82 q31 0 50 17t19 43t-19 42.5t-50 16.5h-82v-119z" />
<glyph unicode="&#xaf;" horiz-adv-x="1032" d="M205 1174v215h622v-215h-622z" />
<glyph unicode="&#xb0;" horiz-adv-x="985" d="M164 1237q0 137 96 233.5t232 96.5t232.5 -96.5t96.5 -233.5q0 -136 -96 -232t-233 -96q-136 0 -232 95.5t-96 232.5zM369 1237q0 -54 36 -91.5t87 -37.5q52 0 88 37.5t36 91.5t-36 92.5t-88 38.5q-51 0 -87 -38.5t-36 -92.5z" />
<glyph unicode="&#xb1;" d="M152 0v215h874v-215h-874zM152 705v215h323v358h227v-358h324v-215h-324v-363h-227v363h-323z" />
<glyph unicode="&#xb4;" horiz-adv-x="782" d="M205 1100v231l373 211v-256z" />
<glyph unicode="&#xb5;" horiz-adv-x="1126" d="M150 -440v1444h229v-584q0 -99 49 -160t141 -61t142.5 61t50.5 160v584h229v-596q0 -190 -117 -311.5t-305 -121.5q-113 0 -190 48v-463h-229z" />
<glyph unicode="&#xb6;" horiz-adv-x="1339" d="M35 1083q0 188 129.5 320.5t316.5 132.5h269v-1536h-236v633h-33q-187 0 -316.5 131t-129.5 319zM272 1083q0 -93 63 -156t157 -63h22v441h-22q-93 0 -156.5 -64.5t-63.5 -157.5zM930 0v1536h235v-1536h-235z" />
<glyph unicode="&#xb7;" horiz-adv-x="657" d="M168 578v340h321v-340h-321z" />
<glyph unicode="&#xb8;" horiz-adv-x="780" d="M205 -434l24 149q24 -12 76 -12q42 0 69 22t27 64q0 76 -102 76h-49l22 153l33 7q115 0 192.5 -66t77.5 -174q0 -107 -75 -174.5t-187 -67.5q-72 0 -108 23z" />
<glyph unicode="&#xbb;" horiz-adv-x="1189" d="M98 152l250 372l-250 373h277l239 -352v-41l-239 -352h-277zM567 152l250 372l-250 373h277l239 -352v-41l-239 -352h-277z" />
<glyph unicode="&#xbf;" horiz-adv-x="903" d="M57 -61q0 112 47 196.5t140 167.5l84 74q43 39 63.5 98.5t20.5 122.5v27h225v-47q0 -116 -29.5 -200t-105.5 -151l-96 -86q-58 -51 -85.5 -96t-27.5 -108q0 -85 53 -131t146 -46q192 0 208 189l224 -33q-12 -168 -129.5 -272.5t-302.5 -104.5q-197 0 -316 108t-119 292z M379 803v305h283v-305h-283z" />
<glyph unicode="&#xc0;" horiz-adv-x="1402" d="M-18 0l526 1536h252l526 -1536h-250l-106 324h-592l-107 -324h-249zM416 557h436l-219 700zM424 1819v256l373 -211v-232z" />
<glyph unicode="&#xc1;" horiz-adv-x="1402" d="M-18 0l526 1536h252l526 -1536h-250l-106 324h-592l-107 -324h-249zM416 557h436l-219 700zM606 1632v232l373 211v-256z" />
<glyph unicode="&#xc2;" horiz-adv-x="1402" d="M-18 0l526 1536h252l526 -1536h-250l-106 324h-592l-107 -324h-249zM379 1550v234l301 194h41l303 -194v-234l-324 205zM416 557h436l-219 700z" />
<glyph unicode="&#xc3;" horiz-adv-x="1402" d="M-18 0l526 1536h252l526 -1536h-250l-106 324h-592l-107 -324h-249zM412 1681v220q73 67 176 67q53 0 102 -24.5t94.5 -49t89.5 -24.5q71 0 138 57v-219q-60 -66 -154 -66q-53 0 -102.5 25t-95 49.5t-89.5 24.5q-89 0 -159 -60zM416 557h436l-219 700z" />
<glyph unicode="&#xc4;" horiz-adv-x="1402" d="M-18 0l436 1272q-44 -35 -105 -35q-72 0 -120 49t-48 121t48 121t120 49q61 0 106.5 -37t57.5 -94l31 90h252l526 -1536h-250l-106 324h-592l-107 -324h-249zM416 557h436l-219 700zM920 1407q0 72 47.5 121t119.5 49t120 -49t48 -121t-48 -121t-120 -49t-119.5 49 t-47.5 121z" />
<glyph unicode="&#xc5;" horiz-adv-x="1402" d="M-16 0l620 1405q-72 28 -116 91.5t-44 145.5q0 109 73.5 181.5t182.5 72.5q108 0 183 -73t75 -181q0 -82 -44 -145t-117 -90l622 -1407h-250l-137 324h-663l-136 -324h-249zM467 557h467l-234 551zM594 1642q0 -46 31 -77t77 -31q44 0 75.5 31t31.5 77q0 47 -31 78 t-76 31q-46 0 -77 -31t-31 -78z" />
<glyph unicode="&#xc6;" horiz-adv-x="1720" d="M-16 0l807 1536h806v-238h-530v-393h530v-237h-530v-430h530v-238h-768v324h-421l-175 -324h-249zM532 557h297v592z" />
<glyph unicode="&#xc7;" horiz-adv-x="1363" d="M92 768q0 164 58.5 311.5t160.5 254.5t246 170t307 63q237 0 426 -125v-268h-26q-79 68 -184.5 109.5t-211.5 41.5q-148 0 -270 -75t-191 -202.5t-69 -279.5t69 -279.5t191 -202.5t270 -75q106 0 212 41t182 106h28v-266q-175 -117 -407 -123q90 -67 90 -184 q0 -107 -75 -174.5t-187 -67.5q-73 0 -109 23l25 149q24 -12 75 -12q42 0 69.5 22t27.5 64q0 76 -103 76h-49l19 129q-256 66 -415 280t-159 494z" />
<glyph unicode="&#xc8;" horiz-adv-x="1064" d="M174 0v1536h768v-238h-530v-393h508v-237h-508v-430h540v-238h-778zM328 1819v256l372 -211v-232z" />
<glyph unicode="&#xc9;" horiz-adv-x="1064" d="M174 0v1536h768v-238h-530v-393h508v-237h-508v-430h540v-238h-778zM356 1632v232l373 211v-256z" />
<glyph unicode="&#xca;" horiz-adv-x="1064" d="M174 0v1536h768v-238h-530v-393h508v-237h-508v-430h540v-238h-778zM231 1622v233l301 195h41l304 -195v-233l-324 205z" />
<glyph unicode="&#xcb;" horiz-adv-x="1064" d="M172 1823q0 72 48 121t120 49t120 -49t48 -121t-48 -121t-120 -49t-120 49t-48 121zM174 0v1536h768v-238h-530v-393h508v-237h-508v-430h540v-238h-778zM612 1823q0 72 48 121t120 49t120 -49t48 -121t-48 -121t-120 -49t-120 49t-48 121z" />
<glyph unicode="&#xcc;" horiz-adv-x="585" d="M39 1819v256l373 -211v-232zM174 0v1536h238v-1536h-238z" />
<glyph unicode="&#xcd;" horiz-adv-x="585" d="M174 0v1536h238v-1536h-238zM174 1632v232l373 211v-256z" />
<glyph unicode="&#xce;" horiz-adv-x="585" d="M-29 1622v233l301 195h41l303 -195v-233l-323 205zM174 0v1536h238v-1536h-238z" />
<glyph unicode="&#xcf;" horiz-adv-x="585" d="M-94 1823q0 72 48 121t120 49t120 -49t48 -121t-48 -121t-120 -49t-120 49t-48 121zM174 0v1536h238v-1536h-238zM346 1823q0 72 48 121t120 49t120 -49t48 -121t-48 -121t-120 -49t-120 49t-48 121z" />
<glyph unicode="&#xd0;" horiz-adv-x="1347" d="M-43 655v215h217v666h324q208 0 382.5 -103t274.5 -279.5t100 -385.5t-100 -385.5t-274.5 -279.5t-382.5 -103h-324v655h-217zM412 236h77q146 0 266.5 70.5t189.5 192.5t69 269q0 223 -151.5 376.5t-373.5 153.5h-77v-428h225v-215h-225v-419z" />
<glyph unicode="&#xd1;" horiz-adv-x="1437" d="M174 0v1536h213l639 -1067v1067h238v-1536h-213l-639 1067v-1067h-238zM393 1663v219q74 68 176 68q53 0 102.5 -25t95 -49.5t89.5 -24.5q41 0 72 14.5t65 43.5v-219q-60 -66 -153 -66q-53 0 -102.5 24.5t-95 49t-89.5 24.5q-91 0 -160 -59z" />
<glyph unicode="&#xd2;" horiz-adv-x="1753" d="M94 768q0 162 61 310t165 255t249.5 170.5t307.5 63.5q216 0 396 -107.5t283 -291t103 -400.5t-103 -400.5t-283 -291t-396 -107.5q-162 0 -307.5 63.5t-249.5 170.5t-165 255t-61 310zM342 768q0 -151 70.5 -278.5t193.5 -202t271 -74.5t271 74.5t193 202t70 278.5 t-70 278.5t-193 202t-271 74.5t-271 -74.5t-193.5 -202t-70.5 -278.5zM678 1819v256l373 -211v-232z" />
<glyph unicode="&#xd3;" horiz-adv-x="1753" d="M94 768q0 162 61 310t165 255t249.5 170.5t307.5 63.5q216 0 396 -107.5t283 -291t103 -400.5t-103 -400.5t-283 -291t-396 -107.5q-162 0 -307.5 63.5t-249.5 170.5t-165 255t-61 310zM342 768q0 -151 70.5 -278.5t193.5 -202t271 -74.5t271 74.5t193 202t70 278.5 t-70 278.5t-193 202t-271 74.5t-271 -74.5t-193.5 -202t-70.5 -278.5zM709 1632v232l372 211v-256z" />
<glyph unicode="&#xd4;" horiz-adv-x="1753" d="M94 768q0 162 61 310t165 255t249.5 170.5t307.5 63.5q216 0 396 -107.5t283 -291t103 -400.5t-103 -400.5t-283 -291t-396 -107.5q-162 0 -307.5 63.5t-249.5 170.5t-165 255t-61 310zM342 768q0 -151 70.5 -278.5t193.5 -202t271 -74.5t271 74.5t193 202t70 278.5 t-70 278.5t-193 202t-271 74.5t-271 -74.5t-193.5 -202t-70.5 -278.5zM555 1622v233l301 195h41l303 -195v-233l-323 205z" />
<glyph unicode="&#xd5;" horiz-adv-x="1753" d="M94 768q0 162 61 310t165 255t249.5 170.5t307.5 63.5q216 0 396 -107.5t283 -291t103 -400.5t-103 -400.5t-283 -291t-396 -107.5q-162 0 -307.5 63.5t-249.5 170.5t-165 255t-61 310zM342 768q0 -151 70.5 -278.5t193.5 -202t271 -74.5t271 74.5t193 202t70 278.5 t-70 278.5t-193 202t-271 74.5t-271 -74.5t-193.5 -202t-70.5 -278.5zM582 1690v219q73 67 176 67q53 0 102 -24.5t94.5 -49t89.5 -24.5q71 0 138 57v-219q-59 -65 -154 -65q-53 0 -102.5 24.5t-95 49t-89.5 24.5q-90 0 -159 -59z" />
<glyph unicode="&#xd6;" horiz-adv-x="1753" d="M94 768q0 162 61 310t165 255t249.5 170.5t307.5 63.5q216 0 396 -107.5t283 -291t103 -400.5t-103 -400.5t-283 -291t-396 -107.5q-162 0 -307.5 63.5t-249.5 170.5t-165 255t-61 310zM342 768q0 -151 70.5 -278.5t193.5 -202t271 -74.5t271 74.5t193 202t70 278.5 t-70 278.5t-193 202t-271 74.5t-271 -74.5t-193.5 -202t-70.5 -278.5zM487 1823q0 72 48 121t120 49t120 -49t48 -121t-48 -121t-120 -49t-120 49t-48 121zM928 1823q0 72 48 121t120 49t120 -49t48 -121t-48 -121t-120 -49t-120 49t-48 121z" />
<glyph unicode="&#xd7;" d="M164 412l272 272l-272 272l155 156l273 -272l272 272l146 -147l-273 -273l277 -274l-156 -156l-274 277l-273 -273z" />
<glyph unicode="&#xd8;" horiz-adv-x="1753" d="M94 768q0 162 61 310t165 255t249.5 170.5t307.5 63.5q219 0 397 -121l72 90h288l-180 -227q97 -108 151 -247.5t54 -293.5q0 -217 -103 -400.5t-283 -291t-396 -107.5q-224 0 -398 121l-71 -90h-285l178 223q-99 109 -153 249t-54 296zM342 768q0 -195 115 -348l669 840 q-114 63 -249 63q-148 0 -271 -74.5t-193.5 -202t-70.5 -278.5zM627 274q116 -61 250 -61q148 0 271 74.5t193 202t70 278.5q0 194 -115 344z" />
<glyph unicode="&#xd9;" horiz-adv-x="1372" d="M166 479v1057h237v-1044q0 -123 81.5 -209t201.5 -86t201.5 86t81.5 209v1044h237v-1057q0 -217 -150.5 -363.5t-369.5 -146.5t-369.5 146.5t-150.5 363.5zM485 1819v256l373 -211v-232z" />
<glyph unicode="&#xda;" horiz-adv-x="1372" d="M166 479v1057h237v-1044q0 -123 81.5 -209t201.5 -86t201.5 86t81.5 209v1044h237v-1057q0 -217 -150.5 -363.5t-369.5 -146.5t-369.5 146.5t-150.5 363.5zM530 1632v232l373 211v-256z" />
<glyph unicode="&#xdb;" horiz-adv-x="1372" d="M166 479v1057h237v-1044q0 -123 81.5 -209t201.5 -86t201.5 86t81.5 209v1044h237v-1057q0 -217 -150.5 -363.5t-369.5 -146.5t-369.5 146.5t-150.5 363.5zM365 1622v233l301 195h41l303 -195v-233l-324 205z" />
<glyph unicode="&#xdc;" horiz-adv-x="1372" d="M123 1829q0 72 48 121t120 49t120 -49t48 -121t-48 -121t-120 -49t-120 49t-48 121zM166 479v1057h237v-1044q0 -123 81.5 -209t201.5 -86t201.5 86t81.5 209v1044h237v-1057q0 -217 -150.5 -363.5t-369.5 -146.5t-369.5 146.5t-150.5 363.5zM913 1829q0 72 48 121 t120 49t120 -49t48 -121t-48 -121t-120 -49t-120 49t-48 121z" />
<glyph unicode="&#xdd;" horiz-adv-x="1169" d="M-61 1536h266l379 -662l381 662h266l-526 -922v-614h-238v610zM473 1632v232l373 211v-256z" />
<glyph unicode="&#xde;" horiz-adv-x="1099" d="M174 0v1536h238v-322h206q187 0 317 -132t130 -320t-130 -319.5t-317 -131.5h-206v-311h-238zM412 545h196q92 0 154.5 62.5t62.5 154.5t-62.5 155.5t-154.5 63.5h-196v-436z" />
<glyph unicode="&#xdf;" horiz-adv-x="1187" d="M145 0v1114q0 190 136 318.5t331 128.5q127 0 234.5 -58.5t171 -162t63.5 -226.5q0 -104 -48.5 -190t-129.5 -142q81 -54 129.5 -141.5t48.5 -191.5q0 -124 -63.5 -227.5t-171.5 -162.5t-234 -59h-82v225h82q98 0 167 65t69 159q0 98 -72 161.5t-180 63.5h-64v221h64 q107 0 179.5 60t72.5 159q0 94 -69 157.5t-167 63.5q-97 0 -165 -66.5t-68 -162.5v-1106h-234z" />
<glyph unicode="&#xe0;" horiz-adv-x="1075" d="M102 283q0 82 33 143.5t92 98t132.5 54t160.5 17.5q136 0 223 -43v96q0 92 -51 139.5t-145 47.5q-86 0 -136 -36.5t-69 -115.5l-209 43q23 111 105 193q108 108 323 108q188 0 296 -104t108 -291v-469q0 -82 12 -150v-14h-203q-10 47 -14 104q-120 -129 -324 -129 q-144 0 -239 85t-95 223zM326 276q0 -60 45.5 -91t113.5 -31q113 0 185.5 59.5t72.5 165.5q-95 33 -204 33q-86 0 -149.5 -33.5t-63.5 -102.5zM362 1286v256l373 -211v-231z" />
<glyph unicode="&#xe1;" horiz-adv-x="1075" d="M102 283q0 82 33 143.5t92 98t132.5 54t160.5 17.5q136 0 223 -43v96q0 92 -51 139.5t-145 47.5q-86 0 -136 -36.5t-69 -115.5l-209 43q23 111 105 193q108 108 323 108q188 0 296 -104t108 -291v-469q0 -82 12 -150v-14h-203q-10 47 -14 104q-120 -129 -324 -129 q-144 0 -239 85t-95 223zM326 276q0 -60 45.5 -91t113.5 -31q113 0 185.5 59.5t72.5 165.5q-95 33 -204 33q-86 0 -149.5 -33.5t-63.5 -102.5zM350 1100v231l373 211v-256z" />
<glyph unicode="&#xe2;" horiz-adv-x="1075" d="M102 283q0 82 33 143.5t92 98t132.5 54t160.5 17.5q136 0 223 -43v96q0 92 -51 139.5t-145 47.5q-86 0 -136 -36.5t-69 -115.5l-209 43q23 111 105 193q108 108 323 108q188 0 296 -104t108 -291v-469q0 -82 12 -150v-14h-203q-10 47 -14 104q-120 -129 -324 -129 q-144 0 -239 85t-95 223zM223 1090v233l301 195h41l303 -195v-233l-323 204zM326 276q0 -60 45.5 -91t113.5 -31q113 0 185.5 59.5t72.5 165.5q-95 33 -204 33q-86 0 -149.5 -33.5t-63.5 -102.5z" />
<glyph unicode="&#xe3;" horiz-adv-x="1075" d="M102 283q0 82 33 143.5t92 98t132.5 54t160.5 17.5q136 0 223 -43v96q0 92 -51 139.5t-145 47.5q-86 0 -136 -36.5t-69 -115.5l-209 43q23 111 105 193q108 108 323 108q188 0 296 -104t108 -291v-469q0 -82 12 -150v-14h-203q-10 47 -14 104q-120 -129 -324 -129 q-144 0 -239 85t-95 223zM244 1157v219q74 68 176 68q53 0 102.5 -24.5t95 -49t89.5 -24.5q70 0 137 57v-219q-60 -66 -154 -66q-53 0 -102.5 25t-95 49.5t-89.5 24.5q-89 0 -159 -60zM326 276q0 -60 45.5 -91t113.5 -31q113 0 185.5 59.5t72.5 165.5q-95 33 -204 33 q-86 0 -149.5 -33.5t-63.5 -102.5z" />
<glyph unicode="&#xe4;" horiz-adv-x="1075" d="M102 283q0 82 33 143.5t92 98t132.5 54t160.5 17.5q136 0 223 -43v96q0 92 -51 139.5t-145 47.5q-86 0 -136 -36.5t-69 -115.5l-209 43q23 111 105 193q108 108 323 108q188 0 296 -104t108 -291v-469q0 -82 12 -150v-14h-203q-10 47 -14 104q-120 -129 -324 -129 q-144 0 -239 85t-95 223zM154 1290q0 72 48 121t120 49t119.5 -49t47.5 -121t-47.5 -121t-119.5 -49t-120 49t-48 121zM326 276q0 -60 45.5 -91t113.5 -31q113 0 185.5 59.5t72.5 165.5q-95 33 -204 33q-86 0 -149.5 -33.5t-63.5 -102.5zM594 1290q0 72 48 121t120 49 t120 -49t48 -121t-48 -121t-120 -49t-120 49t-48 121z" />
<glyph unicode="&#xe5;" horiz-adv-x="1075" d="M102 283q0 82 33 143.5t92 98t132.5 54t160.5 17.5q136 0 223 -43v96q0 92 -51 139.5t-145 47.5q-86 0 -136 -36.5t-69 -115.5l-209 43q23 111 105 193q108 108 323 108q188 0 296 -104t108 -291v-469q0 -82 12 -150v-14h-203q-10 47 -14 104q-120 -129 -324 -129 q-144 0 -239 85t-95 223zM295 1360q0 109 73.5 181.5t182.5 72.5q108 0 183 -73t75 -181t-74.5 -181t-183.5 -73t-182.5 72.5t-73.5 181.5zM326 276q0 -60 45.5 -91t113.5 -31q113 0 185.5 59.5t72.5 165.5q-95 33 -204 33q-86 0 -149.5 -33.5t-63.5 -102.5zM444 1360 q0 -46 31.5 -77.5t77.5 -31.5q44 0 75 31.5t31 77.5q0 47 -30.5 77.5t-75.5 30.5q-46 0 -77.5 -30.5t-31.5 -77.5z" />
<glyph unicode="&#xe6;" horiz-adv-x="1746" d="M109 285q0 82 34 145t93.5 100.5t134 56.5t161.5 19q112 0 195 -26v61q0 88 -48.5 141.5t-133.5 53.5q-159 0 -201 -148l-209 33q27 142 134.5 224.5t285.5 82.5q203 0 307 -133q136 133 340 133q207 0 336 -138.5t129 -350.5q0 -64 -2 -103h-715q9 -108 79 -181t169 -73 q79 0 131 24t90 85l223 -66q-58 -118 -173.5 -184t-258.5 -66q-116 0 -216.5 47.5t-159.5 127.5q-78 -97 -171 -136t-233 -39q-142 0 -231.5 85.5t-89.5 224.5zM332 281q0 -59 38 -92t111 -33q103 0 174.5 69t71.5 176q-75 19 -186 19q-93 0 -151 -35.5t-58 -103.5zM956 614 h482q-15 96 -79.5 151.5t-160.5 55.5q-95 0 -161 -57.5t-81 -149.5z" />
<glyph unicode="&#xe7;" horiz-adv-x="989" d="M88 504q0 220 144 372t360 152q160 0 272 -80v-217h-22q-104 80 -254 80q-122 0 -195.5 -88.5t-73.5 -222.5q0 -132 76 -219.5t197 -87.5q138 0 248 73h24v-215q-88 -61 -223 -74q102 -69 102 -192q0 -107 -75 -174.5t-187 -67.5q-72 0 -108 23l24 149q24 -12 76 -12 q42 0 69 22t27 64q0 76 -102 76h-49l20 133q-158 49 -254 188t-96 318z" />
<glyph unicode="&#xe8;" horiz-adv-x="1120" d="M88 504q0 227 134 375.5t353 148.5q207 0 336 -138.5t129 -350.5q0 -64 -2 -103h-714q9 -115 83 -187.5t181 -72.5q84 0 141.5 35.5t104.5 112.5l194 -91v-14q-73 -137 -203 -199q-95 -45 -233 -45q-229 0 -366.5 148t-137.5 381zM330 614h481q-15 100 -78 156.5 t-162 56.5q-98 0 -162 -58t-79 -155zM371 1286v256l372 -211v-231z" />
<glyph unicode="&#xe9;" horiz-adv-x="1120" d="M88 504q0 227 134 375.5t353 148.5q207 0 336 -138.5t129 -350.5q0 -64 -2 -103h-714q9 -115 83 -187.5t181 -72.5q84 0 141.5 35.5t104.5 112.5l194 -91v-14q-73 -137 -203 -199q-95 -45 -233 -45q-229 0 -366.5 148t-137.5 381zM330 614h481q-15 100 -78 156.5 t-162 56.5q-98 0 -162 -58t-79 -155zM377 1100v231l373 211v-256z" />
<glyph unicode="&#xea;" horiz-adv-x="1120" d="M88 504q0 227 134 375.5t353 148.5q207 0 336 -138.5t129 -350.5q0 -64 -2 -103h-714q9 -115 83 -187.5t181 -72.5q84 0 141.5 35.5t104.5 112.5l194 -91v-14q-73 -137 -203 -199q-95 -45 -233 -45q-229 0 -366.5 148t-137.5 381zM244 1090v233l301 195h41l303 -195v-233 l-324 204zM330 614h481q-15 100 -78 156.5t-162 56.5q-98 0 -162 -58t-79 -155z" />
<glyph unicode="&#xeb;" horiz-adv-x="1120" d="M88 504q0 227 134 375.5t353 148.5q207 0 336 -138.5t129 -350.5q0 -64 -2 -103h-714q9 -115 83 -187.5t181 -72.5q84 0 141.5 35.5t104.5 112.5l194 -91v-14q-73 -137 -203 -199q-95 -45 -233 -45q-229 0 -366.5 148t-137.5 381zM172 1290q0 72 48 121t120 49t120 -49 t48 -121t-48 -121t-120 -49t-120 49t-48 121zM330 614h481q-15 100 -78 156.5t-162 56.5q-98 0 -162 -58t-79 -155zM612 1290q0 72 48 121t120 49t120 -49t48 -121t-48 -121t-120 -49t-120 49t-48 121z" />
<glyph unicode="&#xec;" horiz-adv-x="528" d="M6 1286v256l373 -211v-231zM150 0v1004h229v-1004h-229z" />
<glyph unicode="&#xed;" horiz-adv-x="528" d="M150 0v1004h229v-1004h-229zM150 1100v231l372 211v-256z" />
<glyph unicode="&#xee;" horiz-adv-x="528" d="M-57 1090v233l301 195h41l303 -195v-233l-324 204zM150 0v1004h229v-1004h-229z" />
<glyph unicode="&#xef;" horiz-adv-x="528" d="M-49 1290q0 72 48 121t120 49q46 0 84.5 -22t60.5 -60q22 37 61 59.5t85 22.5q72 0 120 -49t48 -121t-48 -121t-120 -49q-46 0 -85 22.5t-61 59.5q-22 -38 -60.5 -60t-84.5 -22q-72 0 -120 49t-48 121zM150 0v1004h229v-1004h-229z" />
<glyph unicode="&#xf0;" horiz-adv-x="1204" d="M96 481q0 215 145.5 360.5t362.5 145.5l-98 146h-322v215h178l-139 208h279l139 -208h309v-215h-164l240 -357q40 -59 65 -139.5t25 -155.5q0 -141 -66.5 -257t-183.5 -182.5t-260 -66.5t-260 66.5t-183.5 182.5t-66.5 257zM332 481q0 -120 77 -199t197 -79t197.5 79 t77.5 199t-77.5 199.5t-197.5 79.5q-119 0 -196.5 -79t-77.5 -200z" />
<glyph unicode="&#xf1;" horiz-adv-x="1134" d="M150 0v1004h229v-95q115 119 274 119q162 0 260.5 -108t98.5 -275v-645h-230v608q0 95 -48.5 148t-139.5 53q-77 0 -127.5 -39t-73.5 -108q-14 -40 -14 -109v-553h-229zM270 1157v219q74 68 176 68q53 0 102.5 -24.5t95 -49t89.5 -24.5q70 0 137 57v-219 q-60 -66 -153 -66q-53 0 -102.5 25t-95 49.5t-89.5 24.5q-42 0 -85.5 -16.5t-74.5 -43.5z" />
<glyph unicode="&#xf2;" horiz-adv-x="1179" d="M88 504q0 223 142.5 373.5t361.5 150.5q144 0 259 -70.5t178 -190.5t63 -267q0 -223 -142.5 -374t-361.5 -151q-218 0 -359 152.5t-141 376.5zM319 500q0 -135 75.5 -221t197.5 -86q121 0 194.5 87.5t73.5 223.5q0 135 -75 221t-197 86q-121 0 -195 -87.5t-74 -223.5z M412 1286v256l372 -211v-231z" />
<glyph unicode="&#xf3;" horiz-adv-x="1179" d="M88 504q0 223 142.5 373.5t361.5 150.5q144 0 259 -70.5t178 -190.5t63 -267q0 -223 -142.5 -374t-361.5 -151q-218 0 -359 152.5t-141 376.5zM319 500q0 -135 75.5 -221t197.5 -86q121 0 194.5 87.5t73.5 223.5q0 135 -75 221t-197 86q-121 0 -195 -87.5t-74 -223.5z M389 1100v231l373 211v-256z" />
<glyph unicode="&#xf4;" horiz-adv-x="1179" d="M88 504q0 223 142.5 373.5t361.5 150.5q144 0 259 -70.5t178 -190.5t63 -267q0 -223 -142.5 -374t-361.5 -151q-218 0 -359 152.5t-141 376.5zM268 1090v233l301 195h41l303 -195v-233l-323 204zM319 500q0 -135 75.5 -221t197.5 -86q121 0 194.5 87.5t73.5 223.5 q0 135 -75 221t-197 86q-121 0 -195 -87.5t-74 -223.5z" />
<glyph unicode="&#xf5;" horiz-adv-x="1179" d="M88 504q0 223 142.5 373.5t361.5 150.5q144 0 259 -70.5t178 -190.5t63 -267q0 -223 -142.5 -374t-361.5 -151q-218 0 -359 152.5t-141 376.5zM293 1157v219q74 68 176 68q53 0 102.5 -24.5t95 -49t89.5 -24.5q70 0 137 57v-219q-60 -66 -154 -66q-42 0 -82.5 15.5 t-67.5 34t-64 34t-72 15.5q-42 0 -85.5 -16.5t-74.5 -43.5zM319 500q0 -135 75.5 -221t197.5 -86q121 0 194.5 87.5t73.5 223.5q0 135 -75 221t-197 86q-121 0 -195 -87.5t-74 -223.5z" />
<glyph unicode="&#xf6;" horiz-adv-x="1179" d="M88 504q0 223 142.5 373.5t361.5 150.5q144 0 259 -70.5t178 -190.5t63 -267q0 -223 -142.5 -374t-361.5 -151q-218 0 -359 152.5t-141 376.5zM203 1290q0 72 48 121t120 49t120 -49t48 -121t-48 -121t-120 -49t-120 49t-48 121zM319 500q0 -135 75.5 -221t197.5 -86 q121 0 194.5 87.5t73.5 223.5q0 135 -75 221t-197 86q-121 0 -195 -87.5t-74 -223.5zM643 1290q0 72 48 121t120 49t120 -49t48 -121t-48 -121t-120 -49t-120 49t-48 121z" />
<glyph unicode="&#xf7;" d="M152 582v215h874v-215h-874zM426 317q0 67 47 114.5t115 47.5t115 -47.5t47 -114.5t-47 -114t-115 -47t-115 47t-47 114zM426 1061q0 67 47 114.5t115 47.5t115 -47.5t47 -114.5t-47 -114.5t-115 -47.5t-115 47.5t-47 114.5z" />
<glyph unicode="&#xf8;" horiz-adv-x="1179" d="M23 0l159 184q-94 136 -94 320q0 223 142.5 373.5t361.5 150.5q145 0 248 -80l47 56h270l-160 -187q95 -142 95 -317q0 -223 -142.5 -374t-361.5 -151q-146 0 -250 78l-45 -53h-270zM319 500q0 -65 23 -129l350 407q-70 27 -104 27q-119 0 -194 -88t-75 -217zM487 217 q47 -18 105 -18q119 0 193.5 88t74.5 217q0 68 -24 127z" />
<glyph unicode="&#xf9;" horiz-adv-x="1112" d="M135 408v596h230v-584q0 -99 50.5 -160t143.5 -61t145 61.5t52 159.5v584h229v-596q0 -190 -119 -311.5t-307 -121.5t-306 121.5t-118 311.5zM338 1286v256l373 -211v-231z" />
<glyph unicode="&#xfa;" horiz-adv-x="1112" d="M135 408v596h230v-584q0 -99 50.5 -160t143.5 -61t145 61.5t52 159.5v584h229v-596q0 -190 -119 -311.5t-307 -121.5t-306 121.5t-118 311.5zM395 1100v231l373 211v-256z" />
<glyph unicode="&#xfb;" horiz-adv-x="1112" d="M135 408v596h230v-584q0 -99 50.5 -160t143.5 -61t145 61.5t52 159.5v584h229v-596q0 -190 -119 -311.5t-307 -121.5t-306 121.5t-118 311.5zM238 1090v233l301 195h41l303 -195v-233l-324 204z" />
<glyph unicode="&#xfc;" horiz-adv-x="1112" d="M82 1290q0 72 48 121t120 49t120 -49t48 -121t-48 -121t-120 -49t-120 49t-48 121zM135 408v596h230v-584q0 -99 50.5 -160t143.5 -61t145 61.5t52 159.5v584h229v-596q0 -190 -119 -311.5t-307 -121.5t-306 121.5t-118 311.5zM694 1290q0 72 48 121t120 49t120 -49 t48 -121t-48 -121t-120 -49t-120 49t-48 121z" />
<glyph unicode="&#xfd;" horiz-adv-x="1044" d="M-14 1004h260l280 -601l283 601h260l-704 -1428h-254v10l292 574zM426 1100v231l373 211v-256z" />
<glyph unicode="&#xfe;" horiz-adv-x="1239" d="M150 -440v1976h229v-618q113 110 297 110q144 0 253 -70.5t165.5 -190t56.5 -267.5t-57.5 -266.5t-167.5 -188.5t-254 -70q-178 0 -293 109v-524h-229zM379 500q0 -128 77 -214.5t199 -86.5q121 0 193 87.5t72 217.5q0 129 -73.5 215t-195.5 86q-120 0 -196 -86.5 t-76 -218.5z" />
<glyph unicode="&#xff;" horiz-adv-x="1044" d="M-14 1004h260l280 -601l283 601h260l-704 -1428h-254v10l292 574zM145 1290q0 72 48 121t120 49t120 -49t48 -121t-48 -121t-120 -49t-120 49t-48 121zM586 1290q0 72 48 121t120 49t120 -49t48 -121t-48 -121t-120 -49t-120 49t-48 121z" />
<glyph unicode="&#x152;" horiz-adv-x="1908" d="M174 768q0 156 59.5 298t160 245t241.5 164t297 61h854v-238h-531v-393h525v-237h-525v-430h531v-238h-854q-156 0 -297 61t-241.5 164t-160 245t-59.5 298zM416 768q0 -147 68.5 -269t189 -192.5t266.5 -70.5h78v1062h-78q-222 0 -373 -153.5t-151 -376.5z" />
<glyph unicode="&#x153;" horiz-adv-x="1888" d="M88 504q0 223 142.5 373.5t361.5 150.5q115 0 211.5 -46.5t165.5 -131.5q138 178 374 178q207 0 336 -138.5t129 -350.5q0 -64 -2 -103h-714q9 -108 78.5 -181t168.5 -73q79 0 131.5 24t90.5 85l223 -66q-58 -118 -173.5 -184t-258.5 -66q-118 0 -215.5 48.5 t-163.5 134.5q-69 -87 -168 -135t-217 -48q-218 0 -359 152.5t-141 376.5zM319 500q0 -128 76.5 -214.5t196.5 -86.5q119 0 193.5 88t74.5 217q0 128 -76 214.5t-196 86.5q-119 0 -194 -88t-75 -217zM1098 614h481q-15 96 -79.5 151.5t-160.5 55.5q-95 0 -160.5 -57.5 t-80.5 -149.5z" />
<glyph unicode="&#x178;" horiz-adv-x="1169" d="M-61 1536h266l379 -662l381 662h266l-526 -922v-614h-238v610zM195 1823q0 72 47.5 121t119.5 49t120 -49t48 -121t-48 -121t-120 -49t-119.5 49t-47.5 121zM635 1823q0 72 48 121t120 49t120 -49t48 -121t-48 -121t-120 -49t-120 49t-48 121z" />
<glyph unicode="&#x2c6;" horiz-adv-x="1128" d="M242 1090v233l301 195h41l303 -195v-233l-324 204z" />
<glyph unicode="&#x2dc;" horiz-adv-x="1009" d="M205 1157v219q74 68 176 68q53 0 102.5 -24.5t95 -49t89.5 -24.5q70 0 137 57v-219q-60 -66 -154 -66q-42 0 -82.5 15.5t-67.5 34t-64 34t-72 15.5q-42 0 -85.5 -16.5t-74.5 -43.5z" />
<glyph unicode="&#x2000;" horiz-adv-x="1037" />
<glyph unicode="&#x2001;" horiz-adv-x="2075" />
<glyph unicode="&#x2002;" horiz-adv-x="1037" />
<glyph unicode="&#x2003;" horiz-adv-x="2075" />
<glyph unicode="&#x2004;" horiz-adv-x="691" />
<glyph unicode="&#x2005;" horiz-adv-x="518" />
<glyph unicode="&#x2006;" horiz-adv-x="345" />
<glyph unicode="&#x2007;" horiz-adv-x="345" />
<glyph unicode="&#x2008;" horiz-adv-x="259" />
<glyph unicode="&#x2009;" horiz-adv-x="415" />
<glyph unicode="&#x200a;" horiz-adv-x="115" />
<glyph unicode="&#x2010;" horiz-adv-x="1032" d="M184 498v215h664v-215h-664z" />
<glyph unicode="&#x2011;" horiz-adv-x="1032" d="M184 498v215h664v-215h-664z" />
<glyph unicode="&#x2012;" horiz-adv-x="1032" d="M184 498v215h664v-215h-664z" />
<glyph unicode="&#x2013;" horiz-adv-x="1638" d="M215 483v215h1208v-215h-1208z" />
<glyph unicode="&#x2014;" horiz-adv-x="2314" d="M215 483v215h1884v-215h-1884z" />
<glyph unicode="&#x2018;" horiz-adv-x="552" d="M109 948v336q0 142 84 222.5t227 80.5v-123q-162 0 -162 -180h160v-336h-309z" />
<glyph unicode="&#x2019;" horiz-adv-x="552" d="M133 897v123q162 0 162 180h-160v336h309v-336q0 -142 -84 -222.5t-227 -80.5z" />
<glyph unicode="&#x201a;" horiz-adv-x="630" d="M160 -180q162 0 162 180h-160v336h309v-336q0 -142 -84 -222.5t-227 -80.5v123z" />
<glyph unicode="&#x201c;" horiz-adv-x="888" d="M109 1010v286q0 130 69 202.5t197 72.5v-109q-73 0 -100 -41.5t-27 -124.5h125v-286h-264zM489 1010v286q0 130 69.5 202.5t197.5 72.5v-109q-73 0 -100 -41.5t-27 -124.5h125v-286h-265z" />
<glyph unicode="&#x201d;" horiz-adv-x="888" d="M133 975v108q73 0 100 41.5t27 124.5h-125v287h264v-287q0 -130 -69 -202t-197 -72zM514 975v108q73 0 100 41.5t27 124.5h-125v287h264v-287q0 -130 -69 -202t-197 -72z" />
<glyph unicode="&#x201e;" horiz-adv-x="1052" d="M160 -168q79 0 109 41.5t30 126.5h-137v303h278v-303q0 -133 -74.5 -209t-205.5 -76v117zM612 -168q79 0 109.5 41.5t30.5 126.5h-138v303h279v-303q0 -132 -74.5 -208.5t-206.5 -76.5v117z" />
<glyph unicode="&#x2022;" horiz-adv-x="1196" d="M82 657l258 148v299l258 -150l258 150v-299l258 -148l-258 -149v-297l-258 147l-258 -147v297z" />
<glyph unicode="&#x2026;" horiz-adv-x="2394" d="M311 0v319h293v-319h-293zM1051 0v319h292v-319h-292zM1790 0v319h293v-319h-293z" />
<glyph unicode="&#x202f;" horiz-adv-x="415" />
<glyph unicode="&#x2039;" horiz-adv-x="720" d="M106 504v41l240 352h277l-250 -373l250 -372h-277z" />
<glyph unicode="&#x203a;" horiz-adv-x="720" d="M98 152l250 372l-250 373h277l239 -352v-41l-239 -352h-277z" />
<glyph unicode="&#x205f;" horiz-adv-x="518" />
<glyph unicode="&#x20ac;" d="M102 408v213h168q-2 25 -2 73q0 49 2 74h-168v213h197q49 201 169.5 316.5t305.5 115.5q288 0 408 -244l-195 -114q-70 137 -207 137q-84 0 -144 -55.5t-93 -155.5h303v-213h-342q-2 -25 -2 -74q0 -50 2 -73h342v-213h-303q33 -101 93 -156t144 -55q137 0 207 137 l195 -115q-120 -244 -408 -244q-184 0 -305 116t-170 317h-197z" />
<glyph unicode="&#x2122;" horiz-adv-x="1712" d="M31 1331v205h579v-205h-188v-563h-203v563h-188zM657 768l119 768h199l186 -412l187 412h204l119 -768h-198l-66 436l-203 -444h-86l-196 440l-66 -432h-199z" />
<glyph unicode="&#x25fc;" horiz-adv-x="1003" d="M0 0v1004h1004v-1004h-1004z" />
<glyph unicode="&#xfb01;" horiz-adv-x="1296" d="M25 784v215h217v58q0 177 99.5 284t272.5 107q62 0 109 -18v-205h-10q-44 8 -99 8q-143 0 -143 -172v-62h254v-215h-254v-784h-229v784h-217zM866 1382q0 71 48 119.5t118 48.5t118 -48.5t48 -119.5t-48 -119.5t-118 -48.5t-118 48.5t-48 119.5zM918 0v1004h229v-1004 h-229z" />
<glyph unicode="&#xfb02;" horiz-adv-x="1294" d="M25 784v215h217v58q0 177 99.5 284t272.5 107q62 0 109 -18v-205h-10q-44 8 -99 8q-143 0 -143 -172v-62h254v-215h-254v-784h-229v784h-217zM915 0v1536h230v-1536h-230z" />
</font>
</defs>
</svg>
